<?xml version="1.0" encoding="utf-8"?>
<!-- Generator: Adobe Illustrator 27.7.0, SVG Export Plug-In . SVG Version: 6.00 Build 0)  -->
<svg version="1.1" id="Layer_1" xmlns="http://www.w3.org/2000/svg" xmlns:xlink="http://www.w3.org/1999/xlink" x="0px" y="0px"
	 viewBox="0 0 42 42" style="enable-background:new 0 0 42 42;" xml:space="preserve">
<g>
	<g>
		<g>
			<path d="M41.7,20.2C41.3,19.8,32.3,9.9,21,9.9C9.7,9.9,0.7,19.8,0.3,20.2c-0.4,0.5-0.4,1.2,0,1.6C0.7,22.2,9.7,32.1,21,32.1
				s20.3-9.8,20.7-10.3C42.1,21.4,42.1,20.6,41.7,20.2z M21,29.6c-4.7,0-8.6-3.9-8.6-8.6c0-4.7,3.9-8.6,8.6-8.6
				c4.7,0,8.6,3.9,8.6,8.6C29.6,25.7,25.7,29.6,21,29.6z"/>
		</g>
	</g>
	<g>
		<g>
			<path d="M22.4,18.4c0-1.3,0.6-2.5,1.6-3.2c-0.9-0.5-1.9-0.7-2.9-0.7c-3.6,0-6.5,2.9-6.5,6.5c0,3.6,2.9,6.5,6.5,6.5
				c3.2,0,5.9-2.3,6.4-5.4C24.8,22.9,22.4,21,22.4,18.4z"/>
		</g>
	</g>
</g>
</svg>
