<?xml version="1.0" encoding="utf-8"?>
<!-- Generator: Adobe Illustrator 25.4.1, SVG Export Plug-In . SVG Version: 6.00 Build 0)  -->
<svg version="1.1" id="圖層_1" xmlns="http://www.w3.org/2000/svg" xmlns:xlink="http://www.w3.org/1999/xlink" x="0px" y="0px"
	 viewBox="0 0 100 100" style="enable-background:new 0 0 100 100;" xml:space="preserve">
<style type="text/css">
	.st0{fill:#FFFFFF;}
</style>
<g>
	<path class="st0" d="M50,2.5C23.8,2.5,2.5,23.8,2.5,50S23.8,97.5,50,97.5S97.5,76.2,97.5,50S76.2,2.5,50,2.5z M64.9,86
		C45,94.2,22.3,84.8,14,64.9C5.8,45,15.2,22.3,35.1,14C55,5.7,77.7,15.2,86,35.1C94.2,55,84.8,77.7,64.9,86z"/>
	<path class="st0" d="M73.6,19.1L62.2,42.2l-13.1-6.9l14.3-21.8c-2.3-0.8-4.7-1.5-7.1-1.9l-15,23c-0.3,0.4-0.6,1-0.6,1.5L39.5,47
		L33,57.8c-0.3,0.6-0.6,1.2-0.6,1.8v13.9c0,1.9,1.5,3.4,3.5,3.4c0.4,0,1-0.1,1.4-0.3L50,70.9c0.7-0.3,1.2-0.9,1.5-1.4l6.8-12.2
		l7.7-7.7c0.2-0.2,0.4-0.6,0.7-0.9l12.2-24.8C77.3,22.2,75.5,20.5,73.6,19.1z M46.3,64.9L39.4,68v-7.5l4.9-7.8l6.7,3.6L46.3,64.9z
		 M54.9,50.8l-8.4-4.6L47,42l10.9,5.8L54.9,50.8z"/>
</g>
</svg>
