<?xml version="1.0" encoding="utf-8"?>
<!-- Generator: Adobe Illustrator 25.4.1, SVG Export Plug-In . SVG Version: 6.00 Build 0)  -->
<svg version="1.1" id="圖層_1" xmlns="http://www.w3.org/2000/svg" xmlns:xlink="http://www.w3.org/1999/xlink" x="0px" y="0px"
	 viewBox="0 0 100 100" style="enable-background:new 0 0 100 100;" xml:space="preserve">
<style type="text/css">
	.st0{fill:#FFFFFF;}
</style>
<g>
	<circle class="st0" cx="50" cy="39.2" r="15.5"/>
	<path class="st0" d="M50,2.5C23.8,2.5,2.5,23.8,2.5,50S23.8,97.5,50,97.5S97.5,76.2,97.5,50S76.2,2.5,50,2.5z M75.4,79.3v-1.9
		c0-10.1-8.2-18.3-18.3-18.3H42.8c-10.1,0-18.3,8.2-18.3,18.3v1.9C16.4,72.2,11.2,61.7,11.2,50c0-21.4,17.4-38.8,38.8-38.8
		S88.8,28.6,88.8,50C88.8,61.7,83.6,72.2,75.4,79.3z"/>
</g>
</svg>
