<?xml version="1.0" encoding="utf-8"?>
<!-- Generator: Adobe Illustrator 27.7.0, SVG Export Plug-In . SVG Version: 6.00 Build 0)  -->
<svg version="1.1" id="圖層_1" xmlns="http://www.w3.org/2000/svg" xmlns:xlink="http://www.w3.org/1999/xlink" x="0px" y="0px"
	 viewBox="0 0 72 72" style="enable-background:new 0 0 72 72;" xml:space="preserve">
<style type="text/css">
	.st0{display:none;}
	.st1{display:inline;}
	.st2{fill:#FFFFFF;}
	.st3{display:inline;fill:#FFFFFF;}
</style>
<g id="_x30_1" class="st0">
	<g class="st1">
		<path class="st2" d="M0,68.54h8.09c0-1.84,0-30.89,0-32.73H0V68.54z"/>
		<path class="st2" d="M50.97,34.2c4.01,0,7.28-3.27,7.28-7.28c0-3.13-4.81-9.05-7.28-11.76c-2.47,2.71-7.28,8.63-7.28,11.76
			C43.69,30.93,46.95,34.2,50.97,34.2z"/>
		<path class="st2" d="M57.44,42.29H54.2H38.29c-0.45,0-0.81-0.36-0.81-0.81s0.36-0.81,0.81-0.81H54.2c1.78,0,3.24-1.45,3.24-3.24
			c0-1.26-0.73-2.39-1.84-2.92c-2.98,1.82-6.81,1.74-9.73-0.32h-16.2c-0.64,0-1.02-0.71-0.68-1.24l4.52-7.1
			c0.96-1.51,0.52-3.51-0.99-4.47c-1.5-0.96-3.51-0.51-4.47,0.99l-6.04,9.47c-2.73,4.28-7.28,6.92-12.31,7.18v25.91h36.4
			c1.78,0,3.24-1.45,3.24-3.24c0-1.78-1.45-3.24-3.24-3.24h-7.83c-0.45,0-0.81-0.36-0.81-0.81s0.36-0.81,0.81-0.81
			c1.87,0,13.95,0,15.92,0c1.78,0,3.24-1.45,3.24-3.24c0-1.78-1.45-3.24-3.24-3.24h-15.9c-0.45,0-0.81-0.36-0.81-0.81
			s0.36-0.81,0.81-0.81c3.91,0,14.76,0,19.15,0c1.78,0,3.24-1.45,3.24-3.24C60.67,43.74,59.22,42.29,57.44,42.29z"/>
		<path class="st2" d="M60.67,9.98c0-1.26-1.92-3.66-3.01-4.87c-1.09,1.21-3.01,3.61-3.01,4.87c0,1.66,1.35,3.01,3.01,3.01
			C59.33,12.98,60.67,11.63,60.67,9.98z"/>
		<path class="st2" d="M24.5,11.62h4.08v4.08c0,0.75,0.61,1.36,1.36,1.36s1.36-0.61,1.36-1.36v-4.08h4.08
			c0.75,0,1.36-0.61,1.36-1.36S36.13,8.9,35.38,8.9H31.3V4.82c0-0.75-0.61-1.36-1.36-1.36s-1.36,0.61-1.36,1.36V8.9H24.5
			c-0.75,0-1.36,0.61-1.36,1.36C23.14,11.02,23.75,11.62,24.5,11.62z"/>
		<path class="st2" d="M71.19,26.11h-2.43v-2.43c0-0.45-0.36-0.81-0.81-0.81s-0.81,0.36-0.81,0.81v2.43h-2.43
			c-0.45,0-0.81,0.36-0.81,0.81s0.36,0.81,0.81,0.81h2.43v2.43c0,0.45,0.36,0.81,0.81,0.81s0.81-0.36,0.81-0.81v-2.43h2.43
			c0.45,0,0.81-0.36,0.81-0.81S71.64,26.11,71.19,26.11z"/>
	</g>
</g>
<g id="_x30_2" class="st0">
	<path class="st3" d="M72,61.45L60.53,49.97C54.05,56.4,36.86,49.1,26.1,38.34l0.36-0.36c9.01,9.01,25.8,14.52,31.24,9.15
		L24.32,13.77l0,0l0,0c-4.33-4.33-11.34-4.33-15.67,0c-0.49,0.49-0.93,1.02-1.31,1.58l-6.49-1.7l2.99,4.84L0,21.93l5.45,0.16
		c0.22,3.47,1.28,6.72,2.96,9.54C6.51,34.64,5.4,38.2,5.4,42.02c0,10.75,8.71,19.46,19.46,19.46L72,61.45z M15.85,21.07
		c-1.42,0-2.57-1.15-2.57-2.57s1.15-2.57,2.57-2.57s2.57,1.15,2.57,2.57S17.27,21.07,15.85,21.07z"/>
</g>
<g id="_x30_3" class="st0">
	<g class="st1">
		<path class="st2" d="M57.91,5.69h-6.22V2.77c0-1.53-1.24-2.77-2.77-2.77s-2.77,1.24-2.77,2.77v2.94h-7.38V2.77
			C38.77,1.24,37.53,0,36,0s-2.77,1.24-2.77,2.77v2.94h-7.38V2.77c0-1.53-1.24-2.77-2.77-2.77s-2.77,1.24-2.77,2.77v2.94h-6.22
			c-3.57,0-6.46,2.89-6.46,6.46v53.36c0,3.57,2.89,6.46,6.46,6.46h43.83c3.57,0,6.46-2.89,6.46-6.46V12.15
			C64.38,8.58,61.48,5.69,57.91,5.69z M26.11,30.79h19.77c1.53,0,2.77,1.24,2.77,2.77s-1.24,2.77-2.77,2.77H26.11
			c-1.53,0-2.77-1.24-2.77-2.77C23.34,32.03,24.58,30.79,26.11,30.79z M51,48.92H21c-1.53,0-2.77-1.24-2.77-2.77
			s1.24-2.77,2.77-2.77h30c1.53,0,2.77,1.24,2.77,2.77S52.53,48.92,51,48.92z"/>
	</g>
</g>
<g id="_x30_4" class="st0">
	<g class="st1">
		<polygon class="st2" points="68.09,11.71 60.29,3.9 56.39,0 52.48,3.9 56.39,7.8 48.58,15.61 56.39,23.42 64.19,15.61 
			68.09,19.52 72,15.61 		"/>
		<path class="st2" d="M32.96,15.61l3.91,3.9L9.56,46.83l1.94,9.77L0,68.1L3.9,72l11.5-11.5l9.76,1.92l27.32-27.29l3.9,3.9l3.9-3.9
			L36.87,11.71L32.96,15.61z M48.58,31.22L34.91,44.89l-7.8-7.8l13.66-13.66L48.58,31.22z"/>
	</g>
</g>
<g id="_x30_5" class="st0">
	<g class="st1">
		<path class="st2" d="M35.13,44.71l21.12-9.46V47.8c0,0.44-0.26,0.84-0.66,1.02L34.21,58.4c-0.29,0.13-0.63,0.13-0.92,0
			l-21.37-9.57c-0.4-0.18-0.66-0.58-0.66-1.02V35.25l21.12,9.46C33.25,45.1,34.25,45.1,35.13,44.71z M71.5,50.81l-2.87-1.92V28.13
			c-0.01-1.24-1.01-2.24-2.25-2.25h-31.5c-0.62,0-1.12-0.5-1.12-1.12s0.5-1.12,1.12-1.12H61.6L34.21,11.35
			c-0.29-0.13-0.63-0.13-0.92,0L0.66,25.98c-0.57,0.25-0.82,0.92-0.57,1.48c0.11,0.25,0.31,0.45,0.57,0.57l32.62,14.62
			c0.29,0.13,0.63,0.13,0.92,0l32.16-14.42V48.9l-2.87,1.92c-0.31,0.21-0.5,0.56-0.5,0.94v7.87c0,0.62,0.5,1.12,1.12,1.12h6.75
			c0.62,0,1.12-0.5,1.12-1.12v-7.87C72,51.37,71.81,51.02,71.5,50.81z"/>
	</g>
</g>
<g id="_x30_6">
	<g>
		<path class="st2" d="M4.16,65.29L4.16,65.29c0,1.06,0.8,1.86,1.86,1.86h5.7v-3.71h-5.7C4.96,63.43,4.16,64.22,4.16,65.29z"/>
		<path class="st2" d="M65.98,63.43H20.35v3.71h45.63c1.06,0,1.86-0.8,1.86-1.86S67.04,63.43,65.98,63.43z"/>
		<path class="st2" d="M8.14,57.86h55.71c2.26,0,3.98-1.72,3.98-3.98v-32.9c0-2.26-1.72-3.98-3.98-3.98H8.14
			c-2.26,0-3.98,1.72-3.98,3.98v32.9C4.16,56.13,5.89,57.86,8.14,57.86z M28.7,30.66c0-1.86,2.12-3.05,3.71-1.99l9.95,6.77
			c1.33,0.93,1.33,2.92,0,3.85l-9.95,6.77c-1.59,1.06-3.71,0-3.71-1.99V30.66z"/>
		<path class="st2" d="M15.97,61.7c-0.93,0-1.72,0.8-1.72,1.72v3.85c0,0.93,0.8,1.72,1.72,1.72c0.93,0,1.72-0.8,1.72-1.72v-3.85
			C17.69,62.37,16.9,61.7,15.97,61.7z"/>
	</g>
</g>
</svg>
