<?xml version="1.0" encoding="utf-8"?>
<!-- Generator: Adobe Illustrator 27.7.0, SVG Export Plug-In . SVG Version: 6.00 Build 0)  -->
<svg version="1.1" id="圖層_1" xmlns="http://www.w3.org/2000/svg" xmlns:xlink="http://www.w3.org/1999/xlink" x="0px" y="0px"
	 viewBox="0 0 72 72" style="enable-background:new 0 0 72 72;" xml:space="preserve">
<style type="text/css">
	.st0{display:none;}
	.st1{display:inline;}
	.st2{fill:#FFFFFF;}
	.st3{display:inline;fill:#FFFFFF;}
	.st4{fill:#040000;}
</style>
<g id="_x30_1" class="st0">
	<g class="st1">
		<path class="st2" d="M0,68.54h8.09c0-1.84,0-30.89,0-32.73H0V68.54z"/>
		<path class="st2" d="M50.97,34.2c4.01,0,7.28-3.27,7.28-7.28c0-3.13-4.81-9.05-7.28-11.76c-2.47,2.71-7.28,8.63-7.28,11.76
			C43.69,30.93,46.95,34.2,50.97,34.2z"/>
		<path class="st2" d="M57.44,42.29H54.2H38.29c-0.45,0-0.81-0.36-0.81-0.81s0.36-0.81,0.81-0.81H54.2c1.78,0,3.24-1.45,3.24-3.24
			c0-1.26-0.73-2.39-1.84-2.92c-2.98,1.82-6.81,1.74-9.73-0.32h-16.2c-0.64,0-1.02-0.71-0.68-1.24l4.52-7.1
			c0.96-1.51,0.52-3.51-0.99-4.47c-1.5-0.96-3.51-0.51-4.47,0.99l-6.04,9.47c-2.73,4.28-7.28,6.92-12.31,7.18v25.91h36.4
			c1.78,0,3.24-1.45,3.24-3.24c0-1.78-1.45-3.24-3.24-3.24h-7.83c-0.45,0-0.81-0.36-0.81-0.81s0.36-0.81,0.81-0.81
			c1.87,0,13.95,0,15.92,0c1.78,0,3.24-1.45,3.24-3.24c0-1.78-1.45-3.24-3.24-3.24h-15.9c-0.45,0-0.81-0.36-0.81-0.81
			s0.36-0.81,0.81-0.81c3.91,0,14.76,0,19.15,0c1.78,0,3.24-1.45,3.24-3.24C60.67,43.74,59.22,42.29,57.44,42.29z"/>
		<path class="st2" d="M60.67,9.98c0-1.26-1.92-3.66-3.01-4.87c-1.09,1.21-3.01,3.61-3.01,4.87c0,1.66,1.35,3.01,3.01,3.01
			C59.33,12.98,60.67,11.63,60.67,9.98z"/>
		<path class="st2" d="M24.5,11.62h4.08v4.08c0,0.75,0.61,1.36,1.36,1.36s1.36-0.61,1.36-1.36v-4.08h4.08
			c0.75,0,1.36-0.61,1.36-1.36S36.13,8.9,35.38,8.9H31.3V4.82c0-0.75-0.61-1.36-1.36-1.36s-1.36,0.61-1.36,1.36V8.9H24.5
			c-0.75,0-1.36,0.61-1.36,1.36C23.14,11.02,23.75,11.62,24.5,11.62z"/>
		<path class="st2" d="M71.19,26.11h-2.43v-2.43c0-0.45-0.36-0.81-0.81-0.81s-0.81,0.36-0.81,0.81v2.43h-2.43
			c-0.45,0-0.81,0.36-0.81,0.81s0.36,0.81,0.81,0.81h2.43v2.43c0,0.45,0.36,0.81,0.81,0.81s0.81-0.36,0.81-0.81v-2.43h2.43
			c0.45,0,0.81-0.36,0.81-0.81S71.64,26.11,71.19,26.11z"/>
	</g>
</g>
<g id="_x30_2" class="st0">
	<path class="st3" d="M72,61.45L60.53,49.97C54.05,56.4,36.86,49.1,26.1,38.34l0.36-0.36c9.01,9.01,25.8,14.52,31.24,9.15
		L24.32,13.77l0,0l0,0c-4.33-4.33-11.34-4.33-15.67,0c-0.49,0.49-0.93,1.02-1.31,1.58l-6.49-1.7l2.99,4.84L0,21.93l5.45,0.16
		c0.22,3.47,1.28,6.72,2.96,9.54C6.51,34.64,5.4,38.2,5.4,42.02c0,10.75,8.71,19.46,19.46,19.46L72,61.45z M15.85,21.07
		c-1.42,0-2.57-1.15-2.57-2.57s1.15-2.57,2.57-2.57s2.57,1.15,2.57,2.57S17.27,21.07,15.85,21.07z"/>
</g>
<g id="_x30_4" class="st0">
	<g class="st1">
		<polygon class="st4" points="68.09,11.71 60.29,3.9 56.39,0 52.48,3.9 56.39,7.8 48.58,15.61 56.39,23.42 64.19,15.61 
			68.09,19.52 72,15.61 		"/>
		<path class="st4" d="M32.96,15.61l3.91,3.9L9.56,46.83l1.94,9.77L0,68.1L3.9,72l11.5-11.5l9.76,1.92l27.32-27.29l3.9,3.9l3.9-3.9
			L36.87,11.71L32.96,15.61z M48.58,31.22L34.91,44.89l-7.8-7.8l13.66-13.66L48.58,31.22z"/>
	</g>
</g>
<g id="_x30_5" class="st0">
	<g class="st1">
		<path class="st4" d="M35.13,44.71l21.12-9.46V47.8c0,0.44-0.26,0.84-0.66,1.02L34.21,58.4c-0.29,0.13-0.63,0.13-0.92,0
			l-21.37-9.57c-0.4-0.18-0.66-0.58-0.66-1.02V35.25l21.12,9.46C33.25,45.1,34.25,45.1,35.13,44.71z M71.5,50.81l-2.87-1.92V28.13
			c-0.01-1.24-1.01-2.24-2.25-2.25h-31.5c-0.62,0-1.12-0.5-1.12-1.12s0.5-1.12,1.12-1.12H61.6L34.21,11.35
			c-0.29-0.13-0.63-0.13-0.92,0L0.66,25.98c-0.57,0.25-0.82,0.92-0.57,1.48c0.11,0.25,0.31,0.45,0.57,0.57l32.62,14.62
			c0.29,0.13,0.63,0.13,0.92,0l32.16-14.42V48.9l-2.87,1.92c-0.31,0.21-0.5,0.56-0.5,0.94v7.87c0,0.62,0.5,1.12,1.12,1.12h6.75
			c0.62,0,1.12-0.5,1.12-1.12v-7.87C72,51.37,71.81,51.02,71.5,50.81z"/>
	</g>
</g>
<g id="_x30_6" class="st0">
	<g class="st1">
		<path class="st4" d="M0,61.2L0,61.2c0,1.2,0.9,2.1,2.1,2.1h6.45v-4.2H2.1C0.9,59.1,0,60,0,61.2z"/>
		<path class="st4" d="M69.9,59.1H18.3v4.2h51.6c1.2,0,2.1-0.9,2.1-2.1C72,60,71.1,59.1,69.9,59.1z"/>
		<path class="st4" d="M4.5,52.8h63c2.55,0,4.5-1.95,4.5-4.5V11.1c0-2.55-1.95-4.5-4.5-4.5h-63C1.95,6.6,0,8.55,0,11.1v37.2
			C0,50.85,1.95,52.8,4.5,52.8z M27.75,22.05c0-2.1,2.4-3.45,4.2-2.25l11.25,7.65c1.5,1.05,1.5,3.3,0,4.35l-11.25,7.65
			c-1.8,1.2-4.2,0-4.2-2.25V22.05z"/>
		<path class="st4" d="M13.35,57.15c-1.05,0-1.95,0.9-1.95,1.95v4.35c0,1.05,0.9,1.95,1.95,1.95s1.95-0.9,1.95-1.95V59.1
			C15.3,57.9,14.4,57.15,13.35,57.15z"/>
	</g>
</g>
<g>
	<path class="st2" d="M57.53,36.69c-0.13,0.15-0.28,0.29-0.42,0.43c-0.3,0.32-0.61,0.64-0.92,0.96c-0.45,0.45-0.9,0.89-1.36,1.34
		c-0.32,0.32-0.65,0.64-0.97,0.95c-0.73,0.73-1.46,1.46-2.2,2.2c-2.67,2.67-5.35,5.35-8.02,8.02c-1.34,1.34-2.67,2.67-4.01,4.01
		c-0.06,0.06-0.12,0.13-0.18,0.19c-0.06,0.06-0.12,0.12-0.18,0.18l-0.01,0.01c-0.01,0.01-0.01,0.01-0.02,0.02
		c-0.15,0.15-0.3,0.26-0.48,0.36c-0.02,0.01-0.04,0.02-0.07,0.03c-0.01,0.01-0.03,0.01-0.05,0.03c-0.01,0.01-0.03,0.01-0.04,0.02
		c-0.01,0.01-0.03,0.01-0.04,0.01c-0.03,0.01-0.05,0.02-0.08,0.03c-0.01,0-0.01,0-0.01,0.01c-0.02,0.01-0.03,0.01-0.05,0.02
		c-0.01,0-0.01,0.01-0.02,0.01c-0.11,0.03-0.23,0.06-0.35,0.09c-0.03,0.01-0.05,0.01-0.09,0.01c-0.09,0.01-0.17,0.03-0.25,0.04
		c-0.62,0.09-1.25,0.1-1.86,0.13c-0.03,0-0.05,0-0.09,0.01c-0.19,0.01-0.38,0.01-0.58,0.02c-0.1,0-0.19,0.01-0.29,0.01
		c-1.08,0.03-2.16,0.05-3.23,0.05c-0.15,0-0.3,0-0.46,0c-0.44,0-0.83-0.22-1.09-0.55c-0.03-0.03-0.05-0.07-0.07-0.11
		c-0.01-0.02-0.02-0.04-0.03-0.06c-0.02-0.04-0.04-0.08-0.06-0.12c-0.03-0.06-0.05-0.13-0.07-0.19c-0.01-0.02-0.01-0.05-0.01-0.07
		c-0.01-0.05-0.01-0.09-0.02-0.13s-0.01-0.09-0.01-0.14c0-0.36,0-0.72,0-1.08c0-0.24,0-0.48,0-0.73c0-0.41,0-0.82,0.01-1.24
		c0-0.2,0.01-0.4,0.01-0.59c0-0.03,0-0.06,0-0.09c0-0.09,0.01-0.17,0.01-0.25c0-0.09,0.01-0.17,0.01-0.25
		c0.01-0.63,0.04-1.26,0.11-1.89c0-0.01,0-0.02,0.01-0.03c0.01-0.05,0.01-0.09,0.01-0.14c0-0.02,0.01-0.05,0.01-0.07
		c0.01-0.05,0.01-0.09,0.01-0.14c0.01-0.04,0.01-0.08,0.01-0.11c0-0.01,0-0.01,0.01-0.03c0.01-0.05,0.01-0.1,0.02-0.15
		c0.01-0.05,0.01-0.11,0.03-0.17c0-0.01,0.01-0.02,0.01-0.03c0-0.01,0-0.02,0.01-0.03c0-0.02,0.01-0.04,0.01-0.05
		c0-0.01,0.01-0.02,0.01-0.03c0.01-0.02,0.01-0.04,0.01-0.05c0.01-0.02,0.01-0.03,0.01-0.05c0,0,0,0,0-0.01l0,0l0.01-0.01l0.02-0.01
		c0,0,0,0,0.01-0.01c0.01,0,0.01-0.01,0.01-0.01h-0.01l0,0l0,0v-0.01l0,0l0,0v-0.01l0,0h0.01h0.01h-0.01
		c0.01-0.01-0.01-0.02-0.01-0.03l0,0v-0.01c0,0,0,0,0-0.01c0.01-0.07,0.04-0.13,0.07-0.19c0-0.01,0.01-0.01,0.01-0.01
		c0.02-0.04,0.04-0.07,0.06-0.11l0.01-0.01l0,0V46.9c0.06-0.13,0.17-0.26,0.26-0.36c0.01-0.01,0.01-0.01,0.01-0.01l0.01-0.01
		c0.03-0.03,0.07-0.07,0.1-0.11c0.01-0.01,0.01-0.01,0.02-0.02c0.64-0.68,1.33-1.32,1.99-1.99l7.08-7.08
		c1.54-1.54,3.09-3.09,4.63-4.63c0.21-0.21,0.43-0.43,0.64-0.64c1.43-1.43,2.86-2.86,4.29-4.29c1.83-1.83,3.65-3.65,5.48-5.48
		c0.13-0.13,0.26-0.26,0.38-0.38c0.02-0.02,0.03-0.03,0.05-0.05l2.26-2.28v-6.56c0-0.41,0.02-0.82,0.02-1.23
		c-0.01-1.66-0.71-3.31-1.97-4.37c-1.09-0.91-2.38-1.4-3.8-1.41c-0.17,0-0.32,0.01-0.49,0.01H11.65C11.48,6.01,11.3,6,11.11,6
		C9.75,6.01,8.48,6.46,7.42,7.3c-1.46,1.17-2.13,2.93-2.13,4.75V59.9c0,1.82,0.66,3.6,2.13,4.76c1.07,0.84,2.32,1.31,3.68,1.32
		c0.18,0,0.36,0.01,0.53,0.01h39.63c0.17,0,0.34-0.01,0.51-0.01c1.39-0.01,2.67-0.5,3.74-1.37c1.3-1.07,2.01-2.73,2.03-4.4
		c0-0.2-0.02-0.4-0.02-0.6V36.69z M16.18,16.79c0.02,0,0.03,0.01,0.05,0.01c1.24-0.03,2.48,0.01,3.71,0.01h26.72
		c1.14,0,1.99,0.92,2.03,2.03c0.05,1.1-0.97,2.03-2.03,2.03c-0.02,0-0.03,0.03-0.05,0.03c-1.24,0.03-2.48,0.03-3.71,0.03H16.18
		c-1.14,0-1.99-0.96-2.03-2.07C14.09,17.75,15.11,16.79,16.18,16.79z M16.18,28.2h20.98c1.14,0,1.99,0.95,2.03,2.05
		c0.05,1.1-0.97,2.05-2.03,2.05H16.18c-1.14,0-1.99-0.95-2.03-2.05C14.09,29.15,15.11,28.2,16.18,28.2z M23.59,55.21h-7.41
		c-1.14,0-1.99-0.91-2.03-2.02c-0.05-1.1,0.97-2.02,2.03-2.02h7.41c1.14,0,1.99,0.91,2.03,2.02C25.67,54.29,24.65,55.21,23.59,55.21
		z M26.3,43.76H16.18c-1.14,0-1.99-0.95-2.03-2.05c-0.05-1.1,0.97-2.05,2.03-2.05H26.3c1.14,0,1.99,0.95,2.03,2.05
		C28.39,42.81,27.37,43.76,26.3,43.76z"/>
	<path class="st2" d="M60.91,29.49c-0.8,0.8-1.6,1.6-2.4,2.4l-3.16,3.16c-1.48,1.48-2.97,2.97-4.46,4.46
		c-2.73,2.73-5.46,5.46-8.18,8.18l-4.49,4.49c-0.2,0.21-0.4,0.4-0.61,0.61c-0.05,0.05-0.09,0.09-0.14,0.14c-0.01,0-0.03,0-0.04,0.01
		c0,0,0,0-0.01,0.01c0.01,0,0.03,0,0.04,0l0,0c-0.01,0-0.03,0-0.04,0.01l-0.01,0.01c-0.09,0.01-0.19,0.02-0.28,0.03
		c-0.01,0-0.01,0-0.01,0c-0.05,0.01-0.1,0.01-0.15,0.01c-1.46,0.11-2.94,0.14-4.42,0.15l0,0c0-0.15,0-0.28,0-0.43v-0.03
		c0-0.15,0-0.29,0-0.43c0-0.03,0-0.05,0-0.08c0-0.13,0-0.24,0-0.37c0-0.26,0.01-0.52,0.01-0.79c0-0.13,0.01-0.26,0.01-0.38
		c0-0.03,0-0.07,0-0.11c0-0.03,0-0.07,0-0.11c0-0.05,0-0.1,0.01-0.15c0.01-0.36,0.02-0.73,0.05-1.1c0-0.03,0-0.05,0.01-0.07
		c0.01-0.18,0.03-0.36,0.04-0.54c0-0.02,0.01-0.04,0.01-0.06c0-0.01,0-0.01,0-0.01c0-0.03,0.01-0.07,0.01-0.1c0-0.01,0-0.01,0-0.01
		c0-0.01,0.01-0.03,0.01-0.04l0,0c0-0.02,0.01-0.04,0.01-0.05c0.01-0.01,0.01-0.03,0.01-0.05l0.01-0.01
		c0.06-0.06,0.13-0.13,0.19-0.19c0.36-0.36,0.72-0.72,1.08-1.08l3.31-3.31c1.64-1.64,3.27-3.27,4.9-4.9
		c1.69-1.69,3.38-3.38,5.07-5.07c1.26-1.26,2.52-2.52,3.77-3.77c1.7-1.7,3.41-3.41,5.11-5.11l0,0c0,0,0,0,0-0.01
		c1.25,1.24,2.5,2.5,3.75,3.76c0.06,0.06,0.11,0.11,0.17,0.17C60.38,28.96,60.64,29.23,60.91,29.49z"/>
	<path class="st2" d="M66.71,23.67l-0.01,0.01c0.01,0.01,0.01,0.01,0.01,0.01c-1.29,1.29-2.58,2.59-3.87,3.88
		c0,0.01-0.01,0.01-0.01,0.01c-1.58-1.59-3.16-3.16-4.74-4.75l0.01-0.01c1.26-1.26,2.54-2.53,3.81-3.79
		c0.03-0.03,0.05-0.05,0.08-0.07l0,0c0.07,0.07,0.15,0.15,0.21,0.21c0.01,0.01,0.02,0.02,0.03,0.03c0.44,0.44,0.89,0.89,1.34,1.34
		c0.01,0.01,0.03,0.03,0.05,0.05l2.95,2.95c0.03,0.03,0.05,0.04,0.08,0.07C66.66,23.64,66.68,23.66,66.71,23.67z"/>
</g>
</svg>
