<?xml version="1.0" encoding="utf-8"?>
<!-- Generator: Adobe Illustrator 26.0.1, SVG Export Plug-In . SVG Version: 6.00 Build 0)  -->
<svg version="1.1" id="圖層_1" xmlns="http://www.w3.org/2000/svg" xmlns:xlink="http://www.w3.org/1999/xlink" x="0px" y="0px"
	 viewBox="0 0 362 50" style="enable-background:new 0 0 362 50;" xml:space="preserve">
<style type="text/css">
	.st0{fill:#F9D335;}
	.st1{fill:#232B73;}
	.st2{fill:#E4332D;}
</style>
<g>
	<path class="st0" d="M48.2,25.1c0,0,2.3,6.7,10.9,6.7s10.8-7.7,10.8-7.7s2.9-10-7.2-13.9c-12.8-5-21.4,6.2-21.4,6.2
		s-9.5,9.2-9.2,28.1h16.7c0,0-4.4-3.5-5.9-9C41.4,30.2,41.7,22.8,47,18c0,0,3.3-3.9,10.2-2.7c6.4,1.1,4.6,8.2,3.5,9.4
		C58.9,26.3,55.5,29,48.2,25.1z"/>
	<path class="st1" d="M62.3,6.7c-1.3-0.6-2.6-1.2-4.8-1.5c-3.8-0.6-7.4,0-8.6,0.2c-7,1.6-12.1,6-16,12c-0.8,1.3-1.5,2.7-2.3,4.1
		c-0.9-0.8-1.6-1.6-2.4-2.2c-3.5-2.9-7.4-4.6-12-4C8.9,16.3,1.9,23,0.2,30c1.7-1.9,3.5-4.5,5.8-6.6c5-4.5,11.3-4.5,16.6-0.3
		c3.7,2.9,6,6.8,7.7,11.2c0.2,0.6,0.5,1.1,0.7,1.7C30.9,17.3,46.3,2.8,64.3,7.7C63.6,7.3,63,7,62.3,6.7z"/>
</g>
<g>
	<path d="M99.6,13.9l-1.8,1.6c-0.4-0.6-0.8-1.3-1.3-2.1c-3.9,0.8-10.4,1.3-13.6,1.5l-0.5-2.2c1,0,2.2,0.1,3.4,0.1
		c1.1-0.4,2.4-1,3.7-1.7c-1.8,0.3-3.6,0.4-5.2,0.5l-0.4-2l2,0.1c0.6-0.4,1.2-0.9,1.9-1.6h-5.7V6.8h8.5c-0.9-0.6-1.9-1.3-2.7-1.7
		l0.3-0.9c1.2,0.2,3.1,0.7,4.7,1.5L92,6.8h7.3V8h-5.7l2.3,1.3c-1.9,1.5-4.4,2.6-6.7,3.4c2.2-0.1,4.4-0.1,6.4-0.3
		c-0.3-0.5-0.7-0.9-1-1.3l0.6-0.7C96.8,11.3,98.3,12.6,99.6,13.9z M84,15h13.2v8h-2.5v-1h-8.2v1H84V15z M86.5,17.8h2.8v-1.6h-2.8
		V17.8z M86.5,20.8h2.8V19h-2.8V20.8z M91.4,9.7c0.8-0.5,1.5-1.1,2.1-1.6h-2.4c-0.9,0.6-2.2,1.2-3.3,1.6C89,9.7,90.3,9.7,91.4,9.7z
		 M91.7,17.8h2.9v-1.6h-2.9V17.8z M91.7,20.8h2.9V19h-2.9V20.8z"/>
	<path d="M115.4,10h-2.7l1.1,0.7c-0.4,0.4-0.8,0.8-1.3,1.1c0.6,0.2,1.2,0.5,1.7,0.7l-0.8,1.4h1.3v-3.2h2.4V15h-5.2
		c-0.1,0.3-0.3,0.6-0.4,0.9h7.1v5c0,2-2.2,2.7-5.2,1.1l0.2-1c0.1,0,0.2,0,0.2,0c-0.2-0.4-0.4-0.8-0.6-1.2c-2.2,0.7-4.7,1.2-6.6,1.5
		L106,19c0.6,0,1.3,0,1.9,0c0.2-0.6,0.4-1.2,0.6-1.9h-3v5.8h-2.5v-7h5.8c0.1-0.3,0.1-0.6,0.2-0.9h-4.8v-4.3h2.4v3.2h0.7l-0.2-0.6
		c0.8-0.3,1.5-0.7,2.2-1.2c-0.7-0.3-1.4-0.7-2-0.9l0.3-0.9c0.9,0.2,1.9,0.5,2.9,0.8c0.4-0.3,0.8-0.7,1.2-1.1h-5.7V9.6
		c-1.4,0.6-2.8,1.1-4.1,1.4l-0.3-0.9c3.3-1.4,6.3-3.5,8.1-6l2.6,0.9c-0.2,0.2-0.3,0.4-0.5,0.6c2.4,1.5,4.9,2.3,7.9,2.7l-1.1,2.5
		c-1-0.2-2.1-0.7-3.2-1.3V10z M107.4,8.9h3.1c-0.5-0.4-0.9-0.7-1.4-1C108.6,8.3,108,8.6,107.4,8.9z M110.8,12.8
		c-0.9,0.5-1.8,0.8-2.7,1.1h4.6C112.1,13.5,111.5,13.1,110.8,12.8z M110.6,17.1c-0.4,0.7-0.8,1.3-1.3,1.9c1,0,2.1-0.1,3.1-0.2
		c-0.2-0.3-0.4-0.7-0.6-1l0.7-0.6c1,0.8,1.9,1.6,2.8,2.8l-1.7,1.1c1.9,0.3,2.2,0.1,2.2-0.7v-3.2H110.6z M110.1,7.2
		c0.6,0.2,1.3,0.5,1.9,0.9l-0.5,0.8h2.8c-1.2-0.8-2.4-1.6-3.3-2.5C110.7,6.7,110.4,6.9,110.1,7.2z"/>
	<path d="M134,14.7c-0.6,0.5-1.3,0.9-2,1.4h5.8v6.9h-2.4v-1h-4.8v1h-2.4v-5c-1.1,0.4-2.2,0.8-3.2,1l-0.3-1.1
		c2.4-0.9,4.5-1.9,6.3-3.2h-5.3v-1.2h4.1V12h-3.2v-1.2h3.2V9.4h-4.4c0,4.9-0.4,10.8-3,13.7l-0.9-0.6c1.4-3,1.4-6.9,1.4-13.1V5.2
		h15.7v4.2h-2.3l1.9,1.2c-0.7,1-1.6,2-2.7,2.9h3.8v1.2H134z M125.3,8.1h10.8V6.5h-10.8V8.1z M135.4,17.2h-4.8v1.3h4.8V17.2z
		 M135.4,19.5h-4.8v1.4h4.8V19.5z M132.2,9.4v1.4h2.6v0.5c0.5-0.6,1-1.2,1.4-1.9H132.2z M132.5,13.5c0.6-0.5,1.1-1,1.6-1.6h-1.9v1.6
		H132.5z"/>
	<path d="M151.9,15.7V18h6v1.2h-6V23h-2.6v-3.8h-5.9V18h5.9v-2.2h-7.3v-1.2h5.7c-0.6-0.9-1.3-1.9-1.8-2.6l0.3-0.4h-1.6v-0.8h-2.3v-4
		h8.5c-1.1-0.6-2.3-1.3-3.2-1.7l0.3-0.9c1.3,0.1,3.5,0.5,4.9,1.1l-0.8,1.5h7.1v4h-2.3v0.8h-2.3l1.3,0.6c-0.6,0.8-1.5,1.7-2.3,2.4
		h5.8v1.2H151.9z M144.6,8v2.3h5.4c-0.8-0.6-1.5-1.3-2.3-1.8L148,8H144.6z M149.8,13.7l-1,0.9h3.1c0.5-1,0.9-2,1.3-3H147
		C148,12.1,149.1,12.9,149.8,13.7z M156.5,8h-7.2c1,0.3,1.9,0.8,2.8,1.3l-0.7,1h5.1V8z"/>
	<path d="M168.4,15.1c-1.9,1.6-4.1,3-6,3.9l-1-2.5c0.8-0.2,1.6-0.4,2.4-0.7v-5.6h-2.1V9h2.1V4.6h2.4V9h2v1.2h-2V15
		c0.6-0.2,1.1-0.5,1.6-0.7L168.4,15.1z M172.2,13.5c-0.2,0.4-0.5,0.8-0.8,1.2h7.7c0,2.2-0.1,4.5-0.4,6.2c-0.3,2.1-2.1,3-5.3,0.9
		l0.3-1c2.2,0.6,2.5,0.4,2.7-0.4c0.2-0.8,0.4-2.6,0.4-4.5h-0.6c-1.4,3.8-4.7,6.1-7.8,7l-0.4-0.9c2.4-1.2,4.8-3,6-6.1h-0.7
		c-1.6,2.8-4.2,4.4-6.5,5.2l-0.4-0.9c2-1,3.7-2.3,4.8-4.3h-0.8c-1.2,1.2-2.5,2.1-3.9,2.7l-0.5-0.9c1.8-1.2,3-2.6,3.8-4.3h-2.5v-1.2
		h12.3v1.2H172.2z M177.9,11.3h-9.2V5.2h9.2V11.3z M171.1,6.4v1.2h4.5V6.4H171.1z M175.6,10.1V8.8h-4.5v1.3H175.6z"/>
	<path d="M190.6,14.4H185v7h-2.8V6.6h2.8v6.1h5.6V6.6h2.8v14.7h-2.8V14.4z"/>
	<path d="M203.9,17h-4.8l-1.3,4.3h-2.5l4.8-14.7h3.1l5,14.7h-3.1L203.9,17z M201.6,8.9h-0.1c-0.2,0.7-0.5,1.9-0.8,2.7l-1.1,3.8h3.9
		l-1.2-3.8C202,10.7,201.7,9.5,201.6,8.9z"/>
	<path d="M215.9,8.1c-2.8,0-3.8,2.9-3.8,5.9c0,3.1,0.9,5.9,4.1,5.9c1.4,0,2.6-0.6,3.6-1.5v2.3c-0.8,0.6-2.2,0.9-4,0.9
		c-4.5,0-6.7-3.4-6.7-7.7c0-4.6,2.5-7.6,6.5-7.6c1.7,0,3.2,0.5,4.1,1.1v2.4C218.9,8.8,217.3,8.1,215.9,8.1z"/>
	<path d="M228.6,8.1c-2.8,0-3.8,2.9-3.8,5.9c0,3.1,0.9,5.9,4.1,5.9c1.4,0,2.6-0.6,3.6-1.5v2.3c-0.8,0.6-2.2,0.9-4,0.9
		c-4.5,0-6.7-3.4-6.7-7.7c0-4.6,2.5-7.6,6.5-7.6c1.7,0,3.2,0.5,4.1,1.1v2.4C231.6,8.8,230,8.1,228.6,8.1z"/>
	<path d="M239,15.7h-1.2v5.8h-2.8V6.7c1.4-0.1,2.6-0.1,3.9-0.1c3.9,0.1,6.2,1.2,6.2,4.3C245.2,14.5,242.7,15.7,239,15.7z M239.2,8.4
		c-0.5,0-0.8,0-1.3,0.1v5.5h1.1c2.2,0,3.4-0.7,3.4-2.8C242.4,9.1,241,8.4,239.2,8.4z"/>
	<path d="M265,19.8l-1,2.6c-2.3-0.5-5.1-1.9-6.8-3.8V23h-2.6v-4c-1.6,1.4-4.4,2.7-7.4,3.3l-0.3-1c2.4-0.9,4.5-2.1,6.2-3.9h-5.7v-1.2
		h7.3v-1.1h-5.3v-1.1h5.3v-1h-6.5v-1.2h4.3c-0.4-0.8-0.9-1.6-1.4-2.3l0,0h-3.4V8.4h2.7c-0.4-0.9-1-2-1.5-3l0.8-0.6
		c1.1,0.8,2.1,1.9,2.9,2.9l-1.2,0.8h1.7V4.5h2.3v3.9h1.3V4.5h2.3v3.9h0.4c0.5-0.9,1.1-2.4,1.5-3.7l2.3,1.1c-0.6,0.9-1.5,1.9-2.3,2.6
		h3.5v1.2h-4.6l1.1,0.5c-0.6,0.7-1.3,1.3-1.9,1.8h4.9V13h-6.5v1h5.3v1.1h-5.3v1.1h7.3v1.2h-6.6C259.9,18.8,262.7,19.5,265,19.8z
		 M254.7,11.2l-0.8,0.6h3.2c0.3-0.7,0.7-1.5,1-2.3h-5.5C253.4,10.1,254.1,10.7,254.7,11.2z"/>
	<path d="M278.6,12c-0.9,0.7-1.9,1.3-2.9,1.9h6.8V23h-2.5v-1.3h-6.6V23h-2.5v-6.9c-1.3,0.5-2.6,0.8-3.9,1.1l-0.3-1
		c3-1,5.8-2.3,8.4-4.1h-7.9v-1.3h6.5V8.2h-4.3V6.9h4.3V4.4h2.6v2.5h3.9V7c0.4-0.5,0.8-1.1,1.1-1.6l2.3,1.3c-0.9,1.4-2.1,2.7-3.5,4
		h4.4V12H278.6z M279.9,15.1h-6.6v1.9h6.6V15.1z M279.9,18.3h-6.6v2.1h6.6V18.3z M276.7,10.7c0.9-0.8,1.8-1.6,2.6-2.5h-2.9v2.5
		H276.7z"/>
	<path d="M81.7,33.7c0.4,0,0.9-0.1,1.3-0.1v-7.3h6.7v5.2h-2.2c1.1,0.7,2,1.7,2.9,2.7l-1.6,1.2c-0.3-0.5-0.6-1-0.8-1.5
		c-1.9,1-4.4,1.7-5.7,2L81.7,33.7z M99.2,42.3v1.2H82v-1.2H99.2z M84.3,35.9h12.7v5.6H84.3V35.9z M85.3,28.3h2.3v-1h-2.3V28.3z
		 M85.3,30.3h2.3v-1h-2.3V30.3z M85.3,33.3c0.7-0.1,1.5-0.3,2.2-0.4c-0.2-0.3-0.4-0.6-0.6-1l0.7-0.5h-2.2V33.3z M86.8,38h7.6v-1
		h-7.6V38z M86.8,40.2h7.6v-1.1h-7.6V40.2z M92.6,28c-0.1,0.5-0.1,1.1-0.2,1.6h1.1c0.2-0.8,0.3-1.6,0.3-2.4h-3.4v-1.1h8.5v1.1h-2.8
		c0,0.8-0.1,1.6-0.4,2.4h3.4v1.1h-3.8c-0.1,0.2-0.1,0.4-0.2,0.5h1.1V33c0,0.5,0.1,0.6,0.8,0.6s0.9,0,0.9-1.8h0.9
		c0.7,3,0.4,3.6-2.2,3.6c-2.1,0-2.5-0.4-2.5-1.9v-0.6C93.3,34,92,35,90.1,35.7L89.7,35c1.9-1.2,2.9-2.6,3.4-4.2h-1
		c-0.1,0.4-0.2,0.9-0.3,1.3l-1.8-0.3c0.2-1.3,0.4-2.5,0.6-4L92.6,28z"/>
	<path d="M102.1,31.8l-0.7-0.8c1.2-1.4,2.3-3.6,2.9-5.8l2.6,0.8c-0.2,0.4-0.4,0.8-0.6,1.1h4.7v1.2h-3.4c0.6,0.8,1.1,1.7,1.4,2.3
		l-2,0.7c-0.1-0.9-0.4-2-0.7-3h-0.7C104.5,29.8,103.3,31,102.1,31.8z M119.4,28.3h-3.5c0.6,0.7,1.1,1.4,1.5,2.1l-2,0.8
		c-0.2-0.9-0.5-1.9-0.9-2.9h-1.1c-0.5,0.7-1,1.2-1.7,1.7c0.4,0.3,0.7,0.6,1.1,0.9l-0.8,0.7h7.1v3.7h-2.4v-2.5h-12.1v2.5h-2.4v-3.7
		h8.3c-0.5-0.8-1.1-1.5-1.6-2.1l0.6-0.8l1,0.6c0.9-1.3,1.3-2.8,1.6-4.1l2.4,0.7c-0.2,0.4-0.4,0.8-0.6,1.1h5.3V28.3z M107.4,38.8h9.9
		v5.1h-2.5v-1h-7.5V44h-2.5V34h10.9v3.7h-8.5V38.8z M107.4,36.5h6.1v-1.3h-6.1V36.5z M107.4,40v1.7h7.5V40H107.4z"/>
	<path d="M128.5,32.1h4.2v1.2h-4.2v1.6h3.7v5.4c0,1.8-1.8,2.1-3.7,1.1v2.4h-2.4v-7.8h-1.5v6.3h-2.3v-7.5h3.7v-1.6h-4.3v-1.2h4.3
		v-2.3h-2c-0.4,0.8-0.9,1.5-1.5,2.1l-0.8-0.5c0.7-1.7,1.2-3.8,1.4-5.6l2.3,0.5c-0.2,0.8-0.5,1.6-0.8,2.3h1.4v-3.2h2.4v3.2h3.6v1.2
		h-3.6V32.1z M128.5,36.1v4.5l0-0.2c1.2,0.2,1.4,0,1.4-0.5v-3.7H128.5z M138.6,25.5v16c0,2.5-1.9,3.3-5.8,1.4l0.2-1
		c3,0.4,3.2,0.2,3.2-0.9V25.5H138.6z M135.2,39.6h-2.1v-12h2.1V39.6z"/>
	<path d="M141.5,39.6c1.8-2.8,2.8-6.2,3.4-9.6l2.9,0.8c-1,3.4-2.8,7.2-5.4,9.6L141.5,39.6z M145.5,41.8c3.5,0.4,3.9,0.3,3.9-1.2
		V25.5h2.7v16c0,2.7-2.6,3.6-6.8,1.4L145.5,41.8z M153.5,30.6l0.9-0.6c1.9,2.2,4.4,6.2,5.5,8.7l-2.8,1.3
		C156.3,37.2,154.8,33.2,153.5,30.6z"/>
	<path d="M163.9,38.2c0.2,2.2,0,4.4-0.4,5.7l-2.2-0.8c0.8-1.3,1.2-2.6,1.7-5L163.9,38.2z M163.1,35.5c0.7-1,1.4-2,2.1-3.3
		c-1,0.4-2.1,0.7-3.1,0.9l-0.5-2.3c0.4,0,0.8,0,1.2,0c0.7-1.7,1.2-3.7,1.6-5.5L167,26c-0.7,1.6-1.8,3.4-2.8,4.8
		c0.6,0,1.2-0.1,1.8-0.1c0.4-0.7,0.7-1.5,1.1-2.4l2.3,1.1c-1.2,2.1-3.1,4.5-4.7,6.1c0.9-0.1,1.8-0.2,2.7-0.4l-0.4-1.4l0.8-0.4
		c0.9,1,1.5,2.1,2.1,3.5l-1.9,0.7c-0.1-0.5-0.2-0.9-0.3-1.3c-1.8,0.9-4,1.5-5.6,1.8l-0.5-2.3C162,35.5,162.6,35.5,163.1,35.5z
		 M165.5,37.8c0.6,1.2,1.3,3.5,1.6,4.7l-2.1,0.4c0-1.3-0.1-3.5-0.3-4.9L165.5,37.8z M169.6,40.8l-2,0.9c-0.3-1.3-0.8-2.9-1.3-4.1
		l0.8-0.4C168,38.1,169.1,39.7,169.6,40.8z M179.6,42.2v1.2H168v-1.3h1.8V26.4h8.2v15.7H179.6z M175.6,27.7h-3.3v3.7h3.3V27.7z
		 M175.6,32.5h-3.3v4.1h3.3V32.5z M175.6,37.8h-3.3v4.4h3.3V37.8z"/>
	<path d="M188.1,39.3v2.5c0,2.2-2.2,2.8-5.2,1.2l0.2-0.9c2.2,0.3,2.6,0.1,2.6-0.9V40c-1.4,0.4-2.6,0.7-3.6,0.8l-0.6-2.2
		c1.2-0.1,2.6-0.3,4.1-0.5v-1.8l1.3,0.2c0.5-0.6,0.9-1.3,1.1-1.8h-1.7c-1.5,1.4-3.1,2.4-4.7,3.2l-0.5-0.8c1-0.7,2-1.5,3-2.4h-1.9
		v-1.2h3c0.4-0.4,0.8-0.9,1.2-1.4h-5V31h3.2v-1.9h-2.5v-1.2h2.5v-2.3h2.3v2.3h1.9c0.3-0.6,0.5-1.3,0.7-2l2.2,0.9
		c-0.6,1.5-1.4,3-2.2,4.2h1.7v1.2H189c-0.4,0.5-0.8,1-1.2,1.4h0.7l0.5-0.3l1.8,1.2c-0.6,0.8-1.7,1.8-2.7,2.5v0.7
		c1.1-0.2,2.2-0.5,3.2-0.7l0.3,0.9C190.7,38.4,189.4,38.9,188.1,39.3z M187.3,31h0.3c0.4-0.6,0.7-1.2,1.1-1.9h-1.4V31z M199.9,41.6
		l-1.7,2.4c-1.3-0.9-2.4-2.2-3.3-3.7c-1.3,1.5-3.2,2.7-5.6,3.6l-0.4-0.9c2.4-1.3,4-2.8,5.1-4.6c-0.5-1.4-0.8-3-1-4.7
		c-0.5,0.8-1,1.6-1.5,2.2l-0.8-0.5c1.3-2.4,2-6.3,2.3-9.8l2.6,0.4c-0.2,1.2-0.5,2.4-0.9,3.7h4.5v1.2h-1c-0.1,2.8-0.7,5.4-2,7.6
		C197.2,39.7,198.4,40.7,199.9,41.6z M195,36.2c0.6-1.6,0.8-3.4,0.9-5.4h-1.6c-0.1,0.3-0.3,0.7-0.4,1C194.1,33.5,194.5,35,195,36.2z
		"/>
	<path d="M219.3,28.9h-5.5c1.9,0.7,3.6,1.6,5.4,3l-1.7,1.9c-0.5-0.6-1.2-1.2-1.8-1.9c-3.7,0.8-9.4,1.3-12.3,1.4l-0.5-2.4
		c1.1,0.1,2.4,0.1,3.6,0.1c0.4-0.7,0.8-1.4,1.2-2.1h-5.8v-1.3h8.8c-1-0.6-2.1-1.1-3-1.5l0.3-1c1.4,0.1,3.6,0.7,4.9,1.2l-0.7,1.3h7.2
		V28.9z M204.6,33.8h12.2v8c0,2.2-2.1,2.9-5.7,1.2l0.2-1c2.7,0.3,2.9,0.2,2.9-0.9v-1h-7.1v3.8h-2.5V33.8z M207.1,35v1.4h7.1V35
		H207.1z M214.3,38.9v-1.4h-7.1v1.4H214.3z M213.1,29.7l0.5-0.8h-2.9c-0.7,0.8-1.6,1.5-2.4,2.2c2.1,0,4.3,0,6.2-0.1
		C214.1,30.5,213.6,30.1,213.1,29.7z"/>
	<path d="M229.3,30.2h-7.6v-1.3h3.4c-0.7-1.2-1.4-2.3-2-3l0.7-0.7c1.1,0.6,2.4,1.6,3.3,2.7l-1.3,1.1h3.5V30.2z M228.7,42.1h-4.1v1.5
		h-2.2v-6.8h6.3V42.1z M228.6,32.9h-6.2v-1.2h6.2V32.9z M222.4,34.2h6.2v1.2h-6.2V34.2z M226.6,38h-2v3h2V38z M229.9,25.6h2.2v7.7
		c0,5.4-0.5,8.4-3.3,10.7l-0.7-0.6c1.7-2.3,1.8-5.2,1.8-9.5V25.6z M233.2,26.4h2.1v15.8h-2.1V26.4z M238.8,25.5v18.3h-2.2V25.5
		H238.8z"/>
	<path d="M243.8,37.9c0.1,2.2-0.1,4.1-0.4,5.6l-2.1-0.8c0.7-1.3,1.3-2.9,1.6-4.9L243.8,37.9z M259.8,40.8l-1.4,2.1
		c-1.6-1.1-2.9-2.7-3.8-4.7v5.6h-2.4v-5.2c-0.9,1.3-2.3,2.9-4.7,4.2l-0.6-0.9c2.2-1.6,3.5-3.6,4.5-5.6h-2.7c0.1,0.1,0.1,0.2,0.1,0.3
		l-1.7,0.7c0.7,0.8,1.3,1.9,1.8,2.8l-1.7,0.8c-0.4-1.3-0.8-2.5-1.2-3.7l0.8-0.4c0.1,0.1,0.3,0.3,0.4,0.5c-0.1-0.4-0.2-0.9-0.3-1.4
		c-1.5,0.7-3.4,1.3-4.7,1.5l-0.5-2.3c0.4,0,0.8,0,1.3,0c0.7-0.9,1.3-1.9,1.9-3.1c-1,0.3-1.9,0.6-2.7,0.7l-0.4-2.2
		c0.3,0,0.7,0.1,1,0.1c0.6-1.6,1.1-3.5,1.6-5.5l2.4,0.7c-0.7,1.7-1.8,3.6-2.7,4.9c0.5,0,1,0,1.6,0c0.3-0.8,0.7-1.6,1-2.4l2.1,0.9
		c-1.1,2.2-2.7,4.4-4.3,6c0.7,0,1.4-0.1,2.1-0.2l-0.4-1.3l0.8-0.4c0.6,0.7,1.3,1.7,1.7,2.7v-6h3.6v-1.3H248v-1.2h4.2v-2.1h2.4v2.1
		h4.4v1.2h-4.4v1.3h3.7v6.4h-3.4C256.1,38.4,257.8,39.8,259.8,40.8z M245.3,37.6c0.6,1.5,1.2,3.6,1.4,5l-2.1,0.3
		c0-1.4-0.1-3.6-0.2-5.2L245.3,37.6z M250.6,31.3v0.6l0.7-0.2c0.5,0.8,0.9,1.7,1.2,2.7v-3.1H250.6z M250.6,35.2h1.9v-0.7l-1.3,0.5
		c-0.2-0.9-0.4-1.7-0.6-2.4V35.2z M256.2,31.3h-1.9v4h1.9v-2.8c-0.3,1-0.6,1.8-1,2.5l-0.8-0.3c0.3-1.1,0.4-1.9,0.6-3.1l1.2,0.3V31.3
		z"/>
	<path d="M268.7,30h-7v-1.3h3c-0.5-1-1.3-2.2-1.8-2.9l0.7-0.7c1,0.6,2.4,1.7,3.2,2.7l-1.2,0.9h3.1V30z M280,40.8l-1.7,2.1
		c-1.2-1-2.5-2.7-3.4-4.7v5.6h-2.4v-5c-1.1,1.8-2.9,3.4-4.6,4.4l-0.6-0.8c0.2-0.2,0.4-0.3,0.6-0.5h-3.5v1.8h-2.1v-7h5.8v5
		c1.5-1.5,2.8-3.5,3.5-5.3h-3.3v-1.2h4.2v-1.5h-3.4v-7.5h9.1v7.5h-3.4v1.5h4.3v1.2h-4C276.2,38,277.9,39.5,280,40.8z M268.1,31.5
		v1.2h-5.6v-1.2H268.1z M262.4,34.1h5.7v1.2h-5.7V34.1z M266.1,37.9h-1.6v2.8h1.6V37.9z M271.4,29.4h1.3v-2h-1.3V29.4z M272.7,32.5
		v-2h-1.3v2H272.7z M274.8,29.4h1.3v-2h-1.3V29.4z M274.8,32.5h1.3v-2h-1.3V32.5z"/>
	<path d="M287.6,37.4c-0.2-0.7-0.5-1.4-0.8-2.1V44h-2.4v-7.6c-0.5,1.3-1.2,2.6-2.2,3.8l-0.8-0.6c1.2-2.3,2.1-4.9,2.6-7.7h-2.2v-1.2
		h2.6v-2.3c-0.9,0.1-1.8,0.2-2.5,0.3l-0.2-1c2.1-0.5,4.2-1.3,5.9-2.3l1.7,1.9c-0.8,0.3-1.6,0.5-2.4,0.7v2.8h2.2v1.2h-2.2v1.4
		c0.9,0.9,1.9,2.1,2.5,3.1L287.6,37.4z M299.4,42v1.2H288V42h4.5v-2.9h-3.9v-1.2h3.9v-2.3c-1.2,0.1-2.4,0.1-3.2,0.2l-0.2-1
		c2.8-0.3,6.1-1.1,7.9-2l1.9,1.9c-1.1,0.3-2.4,0.5-3.8,0.7v2.5h4v1.2h-4V42H299.4z M298.3,32.6h-8.7v-6.1h8.7V32.6z M295.9,27.8h-4
		v3.7h4V27.8z"/>
</g>
<g>
	<path class="st2" d="M319.3,43.3c-0.1-0.1-0.1-0.2-0.2-0.2c-0.2-0.2-0.4-0.3-0.7-0.2c-0.1,0-0.2,0.1-0.3,0.1
		c-0.2,0-0.3-0.1-0.4-0.3c0-0.2-0.1-0.5-0.1-0.7c-0.1-0.7,0-1.4-0.3-2.1c-0.2-0.5-0.5-0.9-0.9-1.2c-1-0.8-1.8-1.7-2.3-2.9
		c-0.3-0.9-0.6-1.7-0.9-2.6c-0.1-0.2-0.1-0.5-0.1-0.7c0-0.5,0-1,0-1.5c0-0.5-0.1-0.6-0.6-0.7c-0.1,0-0.3,0-0.4,0.1
		c-0.3,0.1-0.6,0.3-0.9,0.4c-0.7,0.3-1.4,0.2-2.1-0.1c-1.2-0.6-2-1.5-2.6-2.7c-0.3-0.6-0.1-1,0.6-1.2c0.5-0.1,1-0.4,1.4-0.8
		c0.3-0.3,0.6-0.5,0.9-0.8c0.5-0.6,1.1-1.3,1.6-1.9c0.2-0.3,0.5-0.6,0.7-0.9c0,0,0-0.1,0.1-0.1c-0.5,0-0.8-0.2-1.1-0.5
		c-0.1,0-0.1-0.1-0.1-0.2c0-0.3,0-0.6,0.1-0.8c0.1-0.2,0.3-0.2,0.5-0.3c0.4,0,0.9,0.1,1.3,0.3c0.2,0,0.3,0.1,0.5,0.1
		c0.1,0,0.2,0,0.1-0.2c-0.1-0.3-0.3-0.4-0.5-0.5c-0.3-0.1-0.6-0.1-0.9-0.2c-0.5,0-1.1,0-1.6-0.1c-0.2,0-0.3-0.1-0.5-0.1
		c-0.2-0.1-0.2-0.2-0.2-0.4c0.1-0.1,0.2-0.3,0.3-0.3c0.6-0.4,1.2-0.6,1.9-0.7c0.7-0.2,1.5-0.2,2.2-0.2c0.6,0,1.1,0.1,1.7,0.1
		c0.8,0,1.6,0.4,2.4,0.5c0.2,0,0.4,0.1,0.7,0.1c0.2,0,0.4-0.1,0.6-0.3c0.2-0.2,0.4-0.5,0.6-0.7c0.7-0.8,1.4-1.6,2-2.4
		c0.3-0.4,0.6-0.7,0.9-1.1c0.2-0.2,0.5-0.4,0.7-0.5c0.6-0.3,1.2-0.5,1.8-0.8c0.4-0.2,0.8-0.5,1.3-0.7c0.3-0.2,0.6-0.4,0.9-0.5
		c0.3-0.1,0.7-0.1,1,0.2c0.2,0.3,0.5,0.5,0.8,0.7c0.4,0.3,0.8,0.4,1.3,0.5c0.1,0,0.3,0.1,0.4,0.1c0.1,0,0.2,0.1,0.2,0.2
		c0.1,0.3,0.2,0.5,0.5,0.7c0.1,0,0.1,0.1,0.2,0.2c0,0.1,0,0.2,0,0.3c-0.4,0.3-0.7,0.6-1.1,0.9c-0.1,0.1-0.2,0.2-0.2,0.4
		c-0.1,0.6-0.2,1.1-0.1,1.7c0,0.3,0,0.3-0.3,0.4c-0.8,0.2-1.7,0.3-2.5,0.5c-0.7,0.1-1.4,0.2-2.1,0.3c-0.7,0.1-1.4,0.2-2.1,0.3
		c-0.5,0.1-1.1,0.1-1.6,0.2c-1,0.1-2,0.1-3,0.1c-0.5,0-1.1-0.2-1.6-0.3c-0.7-0.1-1.3-0.3-2-0.4c-0.7-0.1-1.3-0.1-2-0.1
		c-0.8,0-1.5,0.1-2.2,0.4c0,0-0.1,0-0.1,0.1c-0.1,0-0.1,0.1-0.2,0.2c0.4,0,0.7,0,1,0c0.5,0,1.1,0.1,1.6,0.3c0.4,0.2,0.7,0.4,0.8,0.8
		c0.1,0.2,0,0.4-0.1,0.6c-0.2,0.2-0.5,0.3-0.9,0.2c-0.3-0.1-0.6-0.2-0.9-0.3c-0.1,0-0.1,0-0.2-0.1c-0.2-0.1-0.4,0-0.5,0.2
		c-0.1,0.2,0.1,0.5,0.3,0.5c0.2,0,0.4,0.1,0.6,0.1c0.1,0,0.3,0,0.4,0c0.2,0,0.2,0.1,0.2,0.2c0,0.3-0.1,0.4-0.3,0.6
		c-0.3,0.3-0.5,0.6-0.7,0.8c-0.4,0.6-0.9,1.1-1.3,1.7c-0.5,0.6-1.1,1.2-1.8,1.6c-0.4,0.3-0.9,0.5-1.4,0.6c-0.2,0-0.2,0.1-0.1,0.3
		c0.1,0.4,0.4,0.8,0.6,1.1c0.2,0.3,0.5,0.6,0.8,0.8c0.6,0.6,1.3,0.9,2.2,0.8c0.3,0,0.5-0.2,0.8-0.3c0.3-0.1,0.6-0.3,0.9-0.3
		c0.3,0,0.6,0.1,0.8,0.3c0.7,0.5,1.4,0.9,2.1,1.4c0.8,0.5,1.7,0.8,2.6,1c0.5,0.1,0.9,0.1,1.4,0.2c0.2,0,0.5-0.1,0.6-0.4
		c-0.3-0.1-0.5-0.1-0.8-0.2c-0.7-0.2-1.2-0.5-1.6-1.1c-0.2-0.4-0.4-0.8-0.7-1.2c-0.1-0.2-0.2-0.4-0.4-0.5c-0.1-0.1-0.3-0.2-0.5-0.2
		c-0.4,0-0.8,0-1.2,0c0-0.2-0.1-0.4-0.1-0.6c0.5-0.1,1-0.2,1.5-0.3c0.1,0,0.3-0.1,0.4-0.2c0.2-0.1,0.2-0.2,0.2-0.4
		c-0.2,0-0.3,0.1-0.4,0.1c-0.6,0.2-1.1,0.4-1.8,0.4c-0.2,0-0.5,0-0.7,0c-0.1,0-0.2-0.1-0.2-0.1c-0.3-0.4-0.4-0.9-0.5-1.4
		c0-0.2,0-0.4,0-0.6c0-0.2,0.1-0.3,0.2-0.2c0.2,0,0.3,0,0.5,0.1c0.5,0.2,1,0,1.3-0.3c0.2-0.1,0.3-0.3,0.5-0.5
		c0.2-0.2,0.2-0.5,0.1-0.7c-0.1-0.3-0.4-0.5-0.7-0.5c-0.2,0-0.5,0.1-0.7,0.2c-0.1,0-0.2,0-0.3,0.1c0.2-1.1,1-2,2.2-2.3
		c0.5-0.1,1.1-0.1,1.6-0.1c0.4,0,0.8,0.1,1.1,0.2c0.5,0.1,1,0.1,1.5,0c1-0.2,1.8-0.6,2.8-0.9c0.8-0.3,1.7-0.4,2.5-0.6
		c0.6-0.1,1.2-0.2,1.8-0.2c0.6,0,1.3,0,1.9,0c-0.1,0.2-0.2,0.5-0.4,0.8c-0.2,0.4-0.4,0.8-0.6,1.2c-0.3,0.6-0.5,1.2-0.6,1.8
		c-0.3,1.6-0.6,3.2-1,4.8c-0.3,0.9-0.6,1.8-1,2.6c0,0-0.1,0.1-0.1,0.2c-0.1-0.3-0.2-0.6-0.3-0.9c-0.2-0.9-0.5-1.7-1-2.5
		c-0.3-0.4-0.7-0.7-1-0.9c-0.1-0.1-0.2-0.2-0.3-0.3c0,0,0,0,0,0c0.2,0,0.3,0,0.5,0c0.3,0,0.6,0,0.9-0.1c0.5-0.1,0.7-0.5,0.8-1
		c0-0.1,0-0.3,0-0.4c0-0.1-0.1-0.2-0.2-0.2c-0.1,0-0.3,0-0.3,0.1c-0.1,0.1-0.1,0.3-0.2,0.4c-0.1,0.2-0.3,0.3-0.5,0.2
		c-0.1-0.1-0.2-0.3-0.1-0.5c0.1-0.1,0.1-0.2,0.2-0.3c0.2-0.2,0.2-0.6,0-0.7c-0.2-0.2-0.5-0.2-0.7,0c-0.2,0.1-0.2,0.3-0.3,0.5
		c0,0.1,0,0.1,0,0.2c-0.1,0.3-0.2,0.4-0.5,0.4c-0.2,0-0.4-0.2-0.4-0.5c0-0.5,0.2-0.9,0.6-1.1c0.1-0.1,0.2-0.2,0.3-0.3
		c-0.7,0-1.6,0.5-2.1,1c-0.1,0.1-0.1,0.2-0.1,0.3c0,0.3,0,0.6,0,0.9c0,0.1,0.1,0.2,0.2,0.4c0.1,0.1,0.1,0.2,0.2,0.2
		c-0.5,0.1-1,0.2-1.4,0.3c-0.5,0.1-0.8,0.4-1.1,0.7c-0.1,0.1-0.2,0.3-0.3,0.4c0.2,0,0.4,0,0.6,0c0.3,0,0.6,0,0.9,0.2
		c0,0,0.1,0.1,0.1,0.2c0,0.2-0.2,0.4-0.4,0.5c-0.5,0.3-0.6,0.7-0.6,1.2c0,0.1,0,0.2,0.1,0.2c0.2,0.2,0.5,0.4,0.8,0.5
		c0.5,0.3,0.7,0.1,0.8-0.5c0-0.2,0-0.4,0-0.7c0-0.2,0.1-0.2,0.2-0.2c0,0,0.1,0.1,0.1,0.2c0.1,0.4,0.1,0.8-0.1,1.1
		c-0.2,0.6-0.5,1.1-0.7,1.7c-0.3,0.7-0.6,1.4-0.8,2.1c-0.2,0.8-0.1,1.6,0.2,2.4c0.2,0.5,0.5,1,1,1.4c0.1,0.1,0.1,0.2,0.2,0.3
		c0.1,0.1,0.1,0.2,0.1,0.4c-0.2,0.7-0.2,1.4-0.4,2c-0.2,0.7-0.5,1.4-0.7,2.1c-0.1,0.2-0.2,0.3-0.3,0.5
		C319.6,43.3,319.5,43.3,319.3,43.3z M317.1,25.5c0.3,0,0.4-0.1,0.4-0.4c0-0.2-0.2-0.4-0.4-0.4c-0.2,0-0.4,0.2-0.4,0.4
		C316.8,25.3,316.9,25.5,317.1,25.5z"/>
	<path class="st2" d="M312.8,24.2c-0.2,0-0.5-0.2-0.5-0.5c0-0.3,0.2-0.5,0.5-0.5c0.2,0,0.5,0.3,0.5,0.5
		C313.3,24,313.1,24.2,312.8,24.2z"/>
	<path class="st2" d="M320.8,27.2c0-0.2,0.2-0.4,0.4-0.4c0.2,0,0.4,0.2,0.4,0.4c0,0.2-0.2,0.5-0.4,0.5
		C321,27.7,320.8,27.5,320.8,27.2z"/>
</g>
<g>
	<path d="M327.3,39.6v2.2c0,0.1-0.1,0.2-0.2,0.2c-0.2,0-0.2-0.1-0.2-0.2v-0.2h-1.6v2.1c0,0.2-0.1,0.2-0.2,0.2
		c-0.2,0-0.2-0.1-0.2-0.2v-2.1h-1.6v0.3c0,0.2-0.1,0.2-0.2,0.2c-0.2,0-0.2-0.1-0.2-0.2v-2.2c0-0.2,0.1-0.3,0.3-0.3h1.8v-0.9
		c0-0.2,0.1-0.2,0.2-0.2c0.2,0,0.2,0.1,0.2,0.2v0.9h1.8C327.2,39.4,327.3,39.5,327.3,39.6z M324.7,39.7h-1.5c0,0-0.1,0-0.1,0.1v1.5
		h1.6V39.7z M326.8,41.2v-1.5c0,0,0-0.1-0.1-0.1h-1.5v1.5H326.8z"/>
	<path d="M333.6,43.6c-0.1,0.2-0.2,0.2-0.4,0.2c-1-0.4-1.8-1.3-2.1-2.3H331c-0.3,1.1-1,1.9-2.6,2.3c-0.1,0-0.2,0-0.2-0.1
		c0-0.1,0-0.1,0.1-0.2c1.3-0.5,1.9-1.2,2.2-2.1h-2.1c-0.1,0-0.2-0.1-0.2-0.2c0-0.1,0.1-0.2,0.2-0.2h0.6v-1.7c0-0.2,0.1-0.3,0.3-0.3
		h1.4v-0.8c0-0.2,0.1-0.2,0.2-0.2c0.2,0,0.2,0.1,0.2,0.2v0.8h1.4c0.2,0,0.3,0.1,0.3,0.3v1.7h0.6c0.1,0,0.2,0.1,0.2,0.2
		c0,0.1-0.1,0.2-0.2,0.2h-2.1c0.4,0.8,1.1,1.4,2.1,1.7C333.6,43.3,333.7,43.4,333.6,43.6z M330.6,41.2c0.1-0.4,0.1-0.8,0.1-1.2v-0.4
		h-1.1c0,0-0.1,0-0.1,0.1v1.5H330.6z M331.2,39.6v0.5c0,0.4,0,0.7-0.1,1.1h1.3v-1.5c0,0,0-0.1-0.1-0.1H331.2z"/>
	<path d="M337,39.2c-0.3,0.2-0.6,0.5-1,0.6c0.5,0,0.9,0,1.3,0c0.2-0.1,0.4-0.3,0.6-0.4c0.1-0.1,0.2-0.1,0.3,0c0.1,0.1,0.1,0.2,0,0.3
		c-0.6,0.4-1.2,0.7-1.9,1c0.8,0,1.7-0.1,2.3-0.1c-0.1-0.1-0.2-0.3-0.3-0.4c-0.1-0.1-0.1-0.1,0-0.2c0.1-0.1,0.1-0.1,0.2,0
		c0.4,0.3,0.7,0.6,1,1c0.1,0.1,0.1,0.2,0,0.3s-0.3,0.1-0.3-0.1c-0.1-0.1-0.2-0.3-0.3-0.4c-1.1,0.2-2.7,0.3-4.1,0.3
		c-0.2,0-0.3-0.1-0.3-0.2c0-0.2,0.1-0.2,0.2-0.2c0.2,0,0.5,0,0.8,0c0.5-0.2,1-0.4,1.4-0.7c-0.6,0.1-1.2,0.1-1.8,0.2
		c-0.1,0-0.2-0.1-0.2-0.2c0-0.2,0.1-0.2,0.2-0.2c0.1,0,0.2,0,0.3,0c0.3-0.2,0.5-0.4,0.8-0.6h-1.9c-0.1,0-0.1-0.1-0.1-0.2
		c0-0.1,0.1-0.1,0.1-0.1h2.3v-0.5c0-0.2,0.1-0.2,0.2-0.2c0.2,0,0.2,0.1,0.2,0.2v0.5h2.3c0.1,0,0.2,0.1,0.2,0.1
		c0,0.1-0.1,0.2-0.2,0.2H337z M338.9,41.7v2c0,0.1-0.1,0.2-0.2,0.2c-0.1,0-0.2-0.1-0.2-0.2v-0.2h-2.9v0.2c0,0.1-0.1,0.2-0.2,0.2
		s-0.2-0.1-0.2-0.2v-2c0-0.2,0.1-0.3,0.3-0.3h3.3C338.8,41.4,338.9,41.5,338.9,41.7z M336.7,41.7h-1.2c0,0-0.1,0-0.1,0.1v0.5h1.2
		V41.7z M336.7,42.6h-1.2v0.6h1.2V42.6z M337.2,42.3h1.2v-0.5c0,0,0-0.1-0.1-0.1h-1.2V42.3z M338.4,43.2v-0.6h-1.2v0.6H338.4z"/>
	<path d="M341.2,41.3c0,1.1-0.2,1.9-0.7,2.5c-0.1,0.1-0.1,0.1-0.2,0c-0.1,0-0.1-0.1,0-0.2c0.4-0.5,0.4-1.2,0.4-2.3v-0.8
		c0-0.2,0.1-0.3,0.3-0.3h0.6c-0.1,0-0.1,0-0.1-0.1c0-0.1,0-0.1,0.1-0.1c0.5-0.1,0.9-0.2,1.3-0.3c-0.4-0.1-0.8-0.2-1.1-0.3
		c-0.1,0-0.1-0.1-0.1-0.1c0-0.1,0.1-0.1,0.2-0.1c0.4,0.1,1,0.2,1.5,0.3c0.2-0.1,0.5-0.3,0.7-0.4h-3c-0.1,0-0.2-0.1-0.2-0.2
		s0.1-0.1,0.2-0.1h1.9v-0.4c0-0.1,0.1-0.2,0.2-0.2s0.2,0.1,0.2,0.2v0.4h1.9c0.1,0,0.2,0.1,0.2,0.1c0,0.1-0.1,0.2-0.2,0.2h-0.9l0,0
		c0.1,0.1,0.1,0.2,0,0.3c-0.1,0.1-0.3,0.2-0.5,0.3c0.3,0.1,0.5,0.2,0.8,0.3c0.1,0,0.2,0.2,0.1,0.3c0,0.1-0.1,0.1-0.1,0.1h0.7
		c0.1,0,0.2,0.1,0.2,0.2c0,0.1-0.1,0.2-0.2,0.2h-4.1c0,0-0.1,0-0.1,0.1V41.3z M345.6,43.4c0,0.1-0.1,0.2-0.2,0.2h-4.2
		c-0.1,0-0.2-0.1-0.2-0.2c0-0.1,0.1-0.2,0.2-0.2h1.9v-0.7h-1.2c-0.1,0-0.2-0.1-0.2-0.1c0-0.1,0.1-0.2,0.2-0.2h1.2v-0.6h-1.1
		c-0.2,0.3-0.4,0.6-0.7,0.8c-0.1,0.1-0.1,0.1-0.2,0c-0.1-0.1,0-0.1,0-0.2c0.3-0.4,0.6-0.9,0.7-1.4c0-0.2,0.1-0.2,0.3-0.2
		c0.1,0,0.2,0.1,0.1,0.3c0,0.1-0.1,0.2-0.1,0.4h0.9v-0.4c0-0.1,0.1-0.2,0.2-0.2c0.1,0,0.2,0.1,0.2,0.2v0.4h1.4
		c0.1,0,0.2,0.1,0.2,0.2s-0.1,0.2-0.2,0.2h-1.4v0.6h1.3c0.1,0,0.2,0.1,0.2,0.2c0,0.1-0.1,0.1-0.2,0.1h-1.3v0.7h1.9
		C345.6,43.3,345.6,43.3,345.6,43.4z M341.7,40.3h2.8l0,0c-0.3-0.1-0.7-0.3-1.1-0.4C342.9,40,342.3,40.2,341.7,40.3z"/>
	<path d="M351.6,40c0,0.2-0.2,0.2-0.3,0.2c-0.1,0-0.2-0.1-0.4-0.1c0,0,0,0.1,0,0.2v0.9c0,0.2-0.1,0.3-0.3,0.3h-3.5
		c-0.2,0-0.3-0.1-0.3-0.3v-0.9c0-0.1,0-0.1,0-0.2c-0.2,0.1-0.3,0.1-0.5,0.2c-0.1,0-0.1,0-0.2-0.1c0-0.1,0-0.1,0.1-0.2
		c1-0.4,1.8-1,2.4-1.7c0.1-0.1,0.2-0.1,0.4-0.1c0.1,0.1,0.1,0.2,0.1,0.3c0.6,0.6,1.5,1,2.2,1.2C351.6,39.7,351.7,39.9,351.6,40z
		 M350.7,40c-0.3-0.1-0.6-0.3-0.8-0.5v0c0,0.1-0.1,0.2-0.1,0.2h-1.6c-0.1,0-0.1,0-0.1-0.1c-0.3,0.2-0.5,0.3-0.8,0.4H350.7z
		 M350.6,42.1v1.6c0,0.1-0.1,0.2-0.2,0.2c-0.1,0-0.2-0.1-0.2-0.2v-0.1h-2.4v0.1c0,0.1-0.1,0.2-0.2,0.2c-0.1,0-0.2-0.1-0.2-0.2v-1.6
		c0-0.2,0.1-0.3,0.3-0.3h2.8C350.5,41.8,350.6,41.9,350.6,42.1z M347.4,41.2h1.3v-0.9h-1c0,0,0,0,0.1,0c0.2,0.1,0.4,0.4,0.5,0.5
		c0.1,0.1,0.1,0.2,0,0.3c-0.1,0.1-0.2,0.1-0.3-0.1c-0.1-0.2-0.3-0.4-0.4-0.6c0-0.1,0-0.1,0-0.2c0,0,0,0,0.1,0h-0.3
		c0,0-0.1,0-0.1,0.1L347.4,41.2C347.4,41.1,347.4,41.2,347.4,41.2z M347.7,42.2v0.4h2.4v-0.4c0,0,0-0.1-0.1-0.1L347.7,42.2
		C347.8,42.1,347.7,42.1,347.7,42.2z M350.2,43.2v-0.4h-2.4v0.4H350.2z M348.3,39.3h1.4c-0.2-0.2-0.5-0.4-0.7-0.6
		C348.8,38.9,348.6,39.1,348.3,39.3z M349.5,41c0.1-0.2,0.3-0.4,0.4-0.6c0-0.1,0.1-0.1,0.1-0.1h-0.8v0.9h0.3c0,0,0,0,0,0
		C349.4,41.1,349.4,41.1,349.5,41z M350.5,40.3C350.5,40.3,350.5,40.3,350.5,40.3l-0.5-0.1c0,0,0,0,0.1,0c0.1,0.1,0.1,0.2,0.1,0.3
		c-0.2,0.2-0.4,0.4-0.5,0.6l0,0h0.9c0,0,0.1,0,0.1-0.1V40.3z"/>
</g>
<g>
	<path d="M323.3,36.8c-0.1,0.2-0.3,0.4-0.4,0.5c-0.1,0-0.1,0-0.1,0c0,0,0-0.1,0-0.1c0.1-0.1,0.2-0.3,0.3-0.5c0-0.1,0.1-0.1,0.2-0.1
		C323.4,36.6,323.4,36.7,323.3,36.8z M322.9,36.4v-1.5c0-0.1,0.1-0.2,0.2-0.2h0.7c0.1,0,0.2,0.1,0.2,0.2v1.5c0,0.1-0.1,0.2-0.2,0.2
		h-0.7C322.9,36.5,322.9,36.5,322.9,36.4z M323.2,35.2h0.3v-0.3c0,0,0,0,0,0h-0.3c0,0,0,0,0,0V35.2z M323.2,35.7h0.3v-0.3h-0.3V35.7
		z M323.2,36.3C323.2,36.3,323.3,36.3,323.2,36.3l0.3,0c0,0,0,0,0,0V36h-0.3V36.3z M324,37.1c0.1,0.1,0,0.2-0.1,0.3
		c-0.1,0-0.2,0-0.2-0.1c-0.1-0.2-0.1-0.3-0.2-0.5c0-0.1,0-0.1,0-0.1c0,0,0.1,0,0.1,0C323.8,36.7,323.9,36.9,324,37.1z M325.4,35.3
		c0,0.1,0,0.1-0.1,0.1h-0.2V37c0,0.4-0.3,0.5-0.8,0.3c-0.1,0-0.1-0.1-0.1-0.1c0-0.1,0-0.1,0.1-0.1c0.3,0,0.4,0,0.4-0.2v-1
		c-0.2,0.3-0.4,0.6-0.7,0.8c-0.1,0-0.1,0-0.1,0c0,0,0-0.1,0-0.1c0.3-0.3,0.5-0.7,0.7-1.2h-0.4c-0.1,0-0.1,0-0.1-0.1
		c0-0.1,0-0.1,0.1-0.1h0.6v-0.5c0-0.1,0.1-0.2,0.2-0.2c0.1,0,0.2,0.1,0.2,0.2v0.5h0.2C325.4,35.2,325.4,35.3,325.4,35.3z"/>
	<path d="M333.9,34.8v2.4c0,0.1-0.1,0.2-0.2,0.2c-0.1,0-0.2,0-0.2-0.2h-1.7c0,0.1-0.1,0.2-0.2,0.2c-0.1,0-0.2,0-0.2-0.2v-2.4
		c0-0.1,0.1-0.2,0.2-0.2h2.1C333.8,34.7,333.9,34.7,333.9,34.8z M331.8,34.9V37h1.7v-2.1c0,0,0,0,0,0h-0.7c0,0,0,0,0,0.1V35h0.5
		c0.1,0,0.1,0,0.1,0.1s0,0.1-0.1,0.1h-0.5v0.1h0.4c0.1,0,0.2,0.1,0.2,0.2v0.3c0,0.1-0.1,0.2-0.2,0.2c0.1,0,0.1,0.1,0.2,0.1
		c0.1,0.1,0.1,0.1,0,0.2c-0.1,0.1-0.1,0-0.2,0c0,0,0-0.1-0.1-0.1c0,0-0.1,0-0.1,0c0.1,0,0.1,0.1,0.1,0.1v0.1h0.2
		c0.1,0,0.1,0,0.1,0.1c0,0.1,0,0.1-0.1,0.1h-0.2v0.2c0,0.2-0.2,0.3-0.5,0.2c-0.1,0-0.1-0.1-0.1-0.1c0,0,0-0.1,0.1-0.1
		c0.1,0,0.2,0,0.2-0.1v-0.2h-0.7c0.1,0,0.2,0.1,0.3,0.1c0.1,0.1,0.1,0.1,0,0.2c-0.1,0.1-0.1,0.1-0.2,0c-0.1-0.1-0.1-0.1-0.2-0.2
		c0,0,0-0.1,0-0.1c0,0,0,0,0,0H332c-0.1,0-0.1,0-0.1-0.1c0-0.1,0-0.1,0.1-0.1h0.9v-0.1c0,0,0-0.1,0-0.1c-0.3,0-0.6,0.1-0.9,0.1
		c-0.1,0-0.1,0-0.1-0.1s0-0.1,0.1-0.1c0.2,0,0.3,0,0.5,0v-0.1h-0.4c-0.1,0-0.2-0.1-0.2-0.2v-0.3c0-0.1,0.1-0.2,0.2-0.2h0.4v-0.1H332
		c-0.1,0-0.1,0-0.1-0.1c0-0.1,0-0.1,0.1-0.1h0.5v-0.1c0,0,0,0,0-0.1L331.8,34.9C331.9,34.9,331.8,34.9,331.8,34.9z M332.3,35.4
		C332.3,35.4,332.3,35.4,332.3,35.4L332.3,35.4l0.2,0.1v-0.1H332.3z M332.3,35.7L332.3,35.7c0,0.1,0,0.1,0,0.1h0.2v-0.1H332.3z
		 M333.1,35.5C333.1,35.4,333.1,35.4,333.1,35.5l-0.3,0v0.1L333.1,35.5L333.1,35.5z M333.1,35.8C333.1,35.8,333.1,35.7,333.1,35.8
		l0-0.1h-0.3v0.1H333.1z M332.9,36l0.2,0c0,0,0,0,0,0c0,0,0-0.1,0-0.1h-0.2V36z"/>
	<path d="M340.6,35.7c-0.1,0.1-0.2,0.1-0.3,0c-0.1-0.1-0.2-0.3-0.3-0.4c0,0,0-0.1,0-0.1c0,0,0.1,0,0.1,0c0.1,0.1,0.3,0.2,0.4,0.3
		C340.7,35.5,340.7,35.6,340.6,35.7z M340.6,36.1c-0.1,0.3-0.1,0.7-0.2,1c0,0.2-0.2,0.2-0.3,0.2c-0.1-0.1-0.2-0.2-0.1-0.3
		c0.1-0.2,0.3-0.6,0.4-0.9c0-0.1,0.1-0.1,0.1-0.1C340.6,36,340.6,36,340.6,36.1z M340.2,34.7c0,0,0-0.1,0-0.1c0,0,0.1-0.1,0.1,0
		c0.1,0.1,0.3,0.2,0.4,0.3c0.1,0.1,0.1,0.2,0,0.3c-0.1,0.1-0.2,0.1-0.3,0C340.4,34.9,340.2,34.8,340.2,34.7z M342.5,37.3
		c-0.1,0.1-0.2,0-0.3-0.1c0-0.1,0-0.1-0.1-0.2c-0.4,0.1-0.8,0.2-1.3,0.3c-0.1,0-0.2,0-0.2-0.2c0-0.1,0.1-0.2,0.2-0.2
		c0.1,0,0.1,0,0.2,0c0.1-0.2,0.2-0.5,0.3-0.8h-0.5c-0.1,0-0.1,0-0.1-0.1c0-0.1,0-0.1,0.1-0.1h0.6v-0.5h-0.5c-0.1,0-0.1,0-0.1-0.1
		c0-0.1,0-0.1,0.1-0.1h0.5v-0.4c0-0.1,0.1-0.2,0.2-0.2c0.1,0,0.2,0.1,0.2,0.2v0.4h0.5c0.1,0,0.1,0,0.1,0.1c0,0.1,0,0.1-0.1,0.1h-0.5
		v0.5h0.7c0.1,0,0.1,0,0.1,0.1s0,0.1-0.1,0.1h-0.8c-0.1,0.2-0.3,0.5-0.4,0.7c0.3,0,0.5,0,0.8-0.1c0-0.1-0.1-0.2-0.1-0.3
		c0-0.1,0-0.1,0-0.1c0,0,0.1,0,0.1,0c0.2,0.2,0.3,0.4,0.5,0.7C342.7,37.1,342.7,37.2,342.5,37.3z"/>
	<path d="M348.7,37.2c0.8-0.5,1.1-1.2,1.1-2.2v-0.2c0-0.1,0.1-0.2,0.2-0.2c0.1,0,0.2,0.1,0.2,0.2c0,0.1,0,0.3,0,0.4
		c0.1,0.7,0.5,1.3,1,1.8c0.1,0.1,0.1,0.2,0.1,0.3s-0.2,0.1-0.3,0c-0.5-0.4-0.8-1.1-0.9-1.7c-0.1,0.8-0.6,1.5-1.3,1.8
		c-0.1,0-0.1,0-0.1,0C348.6,37.3,348.6,37.2,348.7,37.2z"/>
</g>
<g>
	<path d="M332.9,27.9c-0.5-0.9-1.4-2.5-2.1-3.7l0,0c0,0.2,0,0.4,0,0.6v3.1c0,0.2-0.1,0.2-0.2,0.2c-0.2,0-0.2-0.1-0.2-0.2v-4
		c0-0.2,0.1-0.3,0.3-0.3c0.2,0,0.3,0.1,0.4,0.3c0.6,1,1.4,2.5,2.1,3.6l0,0c0-0.2,0-0.4,0-0.6v-3.1c0-0.2,0.1-0.2,0.2-0.2
		c0.2,0,0.2,0.1,0.2,0.2v4c0,0.2-0.1,0.3-0.4,0.3C333.2,28.2,333,28.1,332.9,27.9z"/>
	<path d="M338,28.2c-0.2,0.1-0.3,0-0.3-0.1c-0.1-0.4-0.3-0.9-0.5-1.4h-1.8l-0.5,1.4c0,0.1-0.1,0.2-0.3,0.1s-0.2-0.1-0.1-0.3l1.5-4
		c0.1-0.2,0.2-0.3,0.4-0.3c0.2,0,0.4,0.1,0.4,0.3c0.5,1.3,1,2.7,1.5,4C338.2,28,338.1,28.1,338,28.2z M337,26.3
		c-0.2-0.7-0.5-1.4-0.8-2.1h0l-0.8,2.1H337z"/>
	<path d="M338.8,27.9v-4.1c0-0.2,0.1-0.3,0.3-0.3s0.3,0.1,0.3,0.3v4.1c0,0.2-0.1,0.3-0.3,0.3S338.8,28.1,338.8,27.9z"/>
	<path d="M340.9,24.1v1.5h1.7c0.1,0,0.2,0.1,0.2,0.2c0,0.1-0.1,0.2-0.2,0.2h-1.7v1.9c0,0.2-0.1,0.3-0.3,0.3c-0.2,0-0.3-0.1-0.3-0.3
		V24c0-0.2,0.1-0.3,0.3-0.3h2.1c0.1,0,0.2,0.1,0.2,0.2s-0.1,0.2-0.2,0.2L340.9,24.1C340.9,24.1,340.9,24.1,340.9,24.1z"/>
</g>
<g>
	<path d="M330.4,30.3v-1h0.3l0.2,0.4c0.1,0.1,0.1,0.2,0.2,0.3l0,0c0-0.1,0-0.3,0-0.4v-0.3h0.2v1H331l-0.2-0.4
		c-0.1-0.1-0.1-0.2-0.2-0.4l0,0c0,0.1,0,0.3,0,0.4v0.3H330.4z"/>
	<path d="M331.8,30l-0.1,0.3h-0.2l0.3-1h0.3l0.3,1h-0.2l-0.1-0.3H331.8z M332.1,29.8l-0.1-0.2c0-0.1,0-0.1-0.1-0.2h0
		c0,0.1,0,0.1,0,0.2l-0.1,0.2H332.1z"/>
	<path d="M332.8,29.5h-0.3v-0.2h0.8v0.2H333v0.8h-0.2V29.5z"/>
	<path d="M333.8,29.3v1h-0.2v-1H333.8z"/>
	<path d="M335.1,29.8c0,0.3-0.2,0.5-0.5,0.5c-0.3,0-0.5-0.2-0.5-0.5c0-0.3,0.2-0.5,0.5-0.5C334.9,29.2,335.1,29.5,335.1,29.8z
		 M334.3,29.8c0,0.2,0.1,0.3,0.2,0.3c0.2,0,0.2-0.1,0.2-0.3c0-0.2-0.1-0.3-0.2-0.3C334.4,29.4,334.3,29.6,334.3,29.8z"/>
	<path d="M335.4,30.3v-1h0.3l0.2,0.4c0.1,0.1,0.1,0.2,0.2,0.3l0,0c0-0.1,0-0.3,0-0.4v-0.3h0.2v1H336l-0.2-0.4
		c-0.1-0.1-0.1-0.2-0.2-0.4l0,0c0,0.1,0,0.3,0,0.4v0.3H335.4z"/>
	<path d="M336.8,30l-0.1,0.3h-0.2l0.3-1h0.3l0.3,1h-0.2l-0.1-0.3H336.8z M337,29.8l-0.1-0.2c0-0.1,0-0.1-0.1-0.2h0
		c0,0.1,0,0.1,0,0.2l-0.1,0.2H337z"/>
	<path d="M337.7,29.3h0.2v0.8h0.4v0.2h-0.6V29.3z"/>
	<path d="M339.3,30l-0.1,0.3H339l0.3-1h0.3l0.3,1h-0.2l-0.1-0.3H339.3z M339.5,29.8l-0.1-0.2c0-0.1,0-0.1-0.1-0.2h0
		c0,0.1,0,0.1,0,0.2l-0.1,0.2H339.5z"/>
	<path d="M340.2,30.3v-1h0.3l0.2,0.4c0.1,0.1,0.1,0.2,0.2,0.3l0,0c0-0.1,0-0.3,0-0.4v-0.3h0.2v1h-0.2l-0.2-0.4
		c-0.1-0.1-0.1-0.2-0.2-0.4l0,0c0,0.1,0,0.3,0,0.4v0.3H340.2z"/>
	<path d="M341.6,29.3v1h-0.2v-1H341.6z"/>
	<path d="M342.8,29.9c0-0.1,0-0.3,0-0.4h0c0,0.1-0.1,0.3-0.1,0.4l-0.1,0.4h-0.2l-0.1-0.4c0-0.1-0.1-0.3-0.1-0.4h0c0,0.1,0,0.3,0,0.4
		l0,0.4h-0.2l0.1-1h0.3l0.1,0.3c0,0.1,0.1,0.2,0.1,0.4h0c0-0.1,0.1-0.2,0.1-0.4l0.1-0.3h0.3l0.1,1h-0.2L342.8,29.9z"/>
	<path d="M343.6,30l-0.1,0.3h-0.2l0.3-1h0.3l0.3,1H344l-0.1-0.3H343.6z M343.9,29.8l-0.1-0.2c0-0.1,0-0.1-0.1-0.2h0
		c0,0.1,0,0.1,0,0.2l-0.1,0.2H343.9z"/>
	<path d="M344.5,29.3h0.2v0.8h0.4v0.2h-0.6V29.3z"/>
	<path d="M330.6,30.9v1h-0.2v-1H330.6z"/>
	<path d="M331,31.9v-1h0.3l0.2,0.4c0.1,0.1,0.1,0.2,0.2,0.3h0c0-0.1,0-0.3,0-0.4v-0.3h0.2v1h-0.2l-0.2-0.4c-0.1-0.1-0.1-0.2-0.2-0.4
		h0c0,0.1,0,0.3,0,0.4v0.3H331z"/>
	<path d="M332.2,30.9c0.1,0,0.2,0,0.3,0c0.2,0,0.3,0,0.4,0.1c0.1,0.1,0.2,0.2,0.2,0.4c0,0.2-0.1,0.3-0.2,0.4
		c-0.1,0.1-0.3,0.1-0.5,0.1c-0.1,0-0.2,0-0.3,0V30.9z M332.4,31.7C332.4,31.7,332.4,31.7,332.4,31.7c0.3,0,0.4-0.1,0.4-0.3
		c0-0.2-0.1-0.3-0.3-0.3c0,0-0.1,0-0.1,0V31.7z"/>
	<path d="M333.6,30.9v0.6c0,0.2,0.1,0.3,0.2,0.3c0.1,0,0.2-0.1,0.2-0.3v-0.6h0.2v0.6c0,0.3-0.2,0.5-0.4,0.5c-0.3,0-0.4-0.1-0.4-0.5
		v-0.6H333.6z"/>
	<path d="M334.5,31.6c0.1,0,0.2,0.1,0.3,0.1c0.1,0,0.2,0,0.2-0.1c0-0.1,0-0.1-0.2-0.1c-0.2-0.1-0.3-0.2-0.3-0.3
		c0-0.2,0.1-0.3,0.4-0.3c0.1,0,0.2,0,0.3,0.1l0,0.2c0,0-0.1,0-0.2,0c-0.1,0-0.1,0-0.1,0.1c0,0.1,0.1,0.1,0.2,0.1
		c0.2,0.1,0.3,0.2,0.3,0.3c0,0.2-0.1,0.3-0.4,0.3c-0.1,0-0.2,0-0.3-0.1L334.5,31.6z"/>
	<path d="M335.7,31.1h-0.3v-0.2h0.8v0.2h-0.3v0.8h-0.2V31.1z"/>
	<path d="M336.5,30.9c0.1,0,0.2,0,0.3,0c0.1,0,0.3,0,0.3,0.1c0.1,0,0.1,0.1,0.1,0.2c0,0.1-0.1,0.2-0.2,0.2v0c0.1,0,0.1,0.1,0.1,0.2
		c0,0.1,0.1,0.2,0.1,0.3H337c0,0,0-0.1-0.1-0.2c0-0.1-0.1-0.2-0.2-0.2h-0.1v0.4h-0.2V30.9z M336.7,31.3L336.7,31.3
		c0.2,0,0.3-0.1,0.3-0.1c0-0.1-0.1-0.1-0.2-0.1c-0.1,0-0.1,0-0.1,0V31.3z"/>
	<path d="M337.7,31.9v-0.4l-0.3-0.6h0.3l0.1,0.2c0,0.1,0.1,0.1,0.1,0.2h0c0-0.1,0-0.1,0.1-0.2l0.1-0.2h0.3l-0.3,0.6v0.4H337.7z"/>
	<path d="M339,30.9h0.6V31h-0.4v0.2h0.4v0.2h-0.4v0.4H339V30.9z"/>
	<path d="M340.8,31.4c0,0.3-0.2,0.5-0.5,0.5c-0.3,0-0.5-0.2-0.5-0.5c0-0.3,0.2-0.5,0.5-0.5C340.7,30.8,340.8,31.1,340.8,31.4z
		 M340.1,31.4c0,0.2,0.1,0.3,0.2,0.3c0.2,0,0.2-0.1,0.2-0.3c0-0.2-0.1-0.3-0.2-0.3C340.2,31,340.1,31.2,340.1,31.4z"/>
	<path d="M341.4,30.9v0.6c0,0.2,0.1,0.3,0.2,0.3c0.1,0,0.2-0.1,0.2-0.3v-0.6h0.2v0.6c0,0.3-0.2,0.5-0.4,0.5c-0.3,0-0.4-0.1-0.4-0.5
		v-0.6H341.4z"/>
	<path d="M342.3,31.9v-1h0.3l0.2,0.4c0.1,0.1,0.1,0.2,0.2,0.3h0c0-0.1,0-0.3,0-0.4v-0.3h0.2v1h-0.2l-0.2-0.4
		c-0.1-0.1-0.1-0.2-0.2-0.4h0c0,0.1,0,0.3,0,0.4v0.3H342.3z"/>
	<path d="M343.5,30.9c0.1,0,0.2,0,0.3,0c0.2,0,0.3,0,0.4,0.1c0.1,0.1,0.2,0.2,0.2,0.4c0,0.2-0.1,0.3-0.2,0.4
		c-0.1,0.1-0.3,0.1-0.5,0.1c-0.1,0-0.2,0-0.3,0V30.9z M343.7,31.7C343.7,31.7,343.8,31.7,343.7,31.7c0.3,0,0.4-0.1,0.4-0.3
		c0-0.2-0.1-0.3-0.3-0.3c0,0-0.1,0-0.1,0V31.7z"/>
	<path d="M344.9,31.6l-0.1,0.3h-0.2l0.3-1h0.3l0.3,1h-0.2l-0.1-0.3H344.9z M345.2,31.4l-0.1-0.2c0-0.1,0-0.1-0.1-0.2h0
		c0,0.1,0,0.1,0,0.2l-0.1,0.2H345.2z"/>
	<path d="M345.9,31.1h-0.3v-0.2h0.8v0.2h-0.3v0.8h-0.2V31.1z"/>
	<path d="M346.9,30.9v1h-0.2v-1H346.9z"/>
	<path d="M348.1,31.4c0,0.3-0.2,0.5-0.5,0.5c-0.3,0-0.5-0.2-0.5-0.5c0-0.3,0.2-0.5,0.5-0.5C348,30.8,348.1,31.1,348.1,31.4z
		 M347.4,31.4c0,0.2,0.1,0.3,0.2,0.3c0.2,0,0.2-0.1,0.2-0.3c0-0.2-0.1-0.3-0.2-0.3C347.5,31,347.4,31.2,347.4,31.4z"/>
	<path d="M348.5,31.9v-1h0.3l0.2,0.4c0.1,0.1,0.1,0.2,0.2,0.3h0c0-0.1,0-0.3,0-0.4v-0.3h0.2v1H349l-0.2-0.4
		c-0.1-0.1-0.1-0.2-0.2-0.4h0c0,0.1,0,0.3,0,0.4v0.3H348.5z"/>
</g>
</svg>
