<?xml version="1.0" encoding="utf-8"?>
<!-- Generator: Adobe Illustrator 27.1.1, SVG Export Plug-In . SVG Version: 6.00 Build 0)  -->
<svg version="1.1" id="圖層_1" xmlns="http://www.w3.org/2000/svg" xmlns:xlink="http://www.w3.org/1999/xlink" x="0px" y="0px"
	 viewBox="0 0 420 50" style="enable-background:new 0 0 420 50;" xml:space="preserve">
<style type="text/css">
	.st0{fill:#6FBA2C;}
	.st1{fill:#002870;}
	.st2{fill:#FABE00;}
	.st3{fill:#00744B;}
</style>
<g>
	<path d="M92.3,38.6h11.2v2.3H76.8v-2.3h11.1v-5.1h-7.7v-2.2h7.7v-4.6h-6.2V26c-1.8,1-3.6,1.9-5.6,2.5l-0.7-1.6
		c5.6-2.9,9.3-7.3,11-11.2H80v-2.2h12c2.1,4.4,6.6,8.2,13.1,10.4l-2.3,4.2c-1.3-0.6-2.7-1.4-4-2.4v1h-6.5v4.6h7.7v2.2h-7.7
		C92.3,33.5,92.3,38.6,92.3,38.6z M97.4,24.7c-2.8-2.3-5.3-5.3-6.5-8.6c-1.4,3.3-4,6.2-7.3,8.6H97.4z"/>
	<path d="M136.1,13.4v28.5h-3.9v-1.4H114V42h-3.9V13.4H136.1z M132.2,15.4H128c1,0.8,2.3,2.2,3.1,3.4l-1.4,0.9h2v1.9h-5.4
		c0.1,2.4,0.3,4.5,0.5,6.3c0.6-1.5,1.2-3.2,1.6-5.2l2.8,0.9c-0.7,2.9-1.9,5.6-3.5,8c0.4,1.1,0.9,1.8,1.4,2.1s0.7-0.8,0.7-4h1.5
		c1.1,6.5-0.1,8.2-2.2,7.7c-1.6-0.4-2.7-1.5-3.6-3.3c-1.6,1.6-3.6,2.9-5.9,3.8l-0.7-1.3c2.4-1.5,4.3-3,5.7-4.9
		c-0.9-2.9-1.2-6.5-1.4-10.2h-8.7v-1.9h8.6c0-1.2-0.1-2.4-0.1-3.5h3.1c0,1.2,0,2.4,0,3.5h2.2c-0.5-1.3-1.2-2.6-1.7-3.5l1.1-0.7H114
		v23.1h18.2V15.4z M115,36.1l-1-3.1c3.2-0.5,6.7-1.5,9.2-2.3l0.5,1.3C121.3,33.6,117.9,35.3,115,36.1z M115.2,23.2h7.2v7.1h-7.2
		V23.2z M117.9,28.6h2V25h-2V28.6z"/>
	<path d="M170.4,36.3l-2.5,3.7c-3.2-2-5.8-5.8-7.2-10.5l-1.4,0.5c0.6,1.6,1,3.3,1,5.1c0.1,6.6-3.8,8.5-9.6,5.1l0.5-1.6
		c4.6,0.8,5.3,0.4,5.3-4.1v-0.4c-3.1,2.5-8,4.9-13.6,6.1l-0.5-1.6c5.3-1.7,10-4.6,13.6-8.3c-0.1-0.4-0.2-0.7-0.3-1.1
		c-3.5,2.5-7.9,4.2-12.4,5.2l-0.5-1.6c4.4-1.5,8.4-3.6,11.7-6.7c-0.1-0.3-0.3-0.6-0.4-0.8c-3.3,1.8-7,3-10,3.6l-0.5-1.6
		c4.4-1.4,7.1-3.1,9.2-5h-5.1v-2h17v2h-6.5c-0.7,0.7-1.6,1.3-2.4,1.9c1.1,1.2,2.1,2.5,2.8,4c2.1-1.5,3.7-3,5.3-5l3,2.6
		c-1.5,1.2-3.1,2.1-4.7,2.9C164.2,32.3,166.9,34.5,170.4,36.3z M146.5,22.6h-3.8v-6.5H156c-1.6-1-3.5-2-5.1-2.8l0.5-1.6
		c2.6,0.3,5.8,1.1,8,2.1l-1.2,2.3h11.1v6.4h-3.8v-4.4h-19.1v4.5H146.5z"/>
	<path d="M196.7,21.2h-4.3l1.7,1.1c-0.6,0.6-1.3,1.2-2.1,1.8c1,0.4,1.9,0.8,2.7,1.2l-1.3,2.2h2v-5.2h3.8v7h-8.4
		c-0.2,0.5-0.4,1-0.7,1.5h11.3v8c0,3.3-3.5,4.4-8.3,1.7l0.4-1.6c0.1,0,0.3,0,0.4,0.1c-0.3-0.7-0.6-1.3-1-2c-3.6,1.2-7.6,2-10.5,2.4
		l-0.8-3.6c1,0,2,0,3.1,0c0.4-1,0.7-2,1-3H181v9.3h-4V30.7h9.3c0.1-0.5,0.2-1,0.3-1.5h-7.7v-6.9h3.8v5.1h1.1l-0.4-1
		c1.3-0.5,2.5-1.2,3.6-1.9c-1.2-0.5-2.2-1.1-3.2-1.4l0.5-1.4c1.4,0.3,3.1,0.8,4.7,1.3c0.6-0.5,1.3-1.1,1.9-1.8h-9.1v-0.7
		c-2.2,1-4.5,1.7-6.6,2.2l-0.5-1.5c5.2-2.2,10-5.6,12.9-9.6l4.2,1.5c-0.3,0.4-0.5,0.7-0.8,1c3.8,2.3,7.8,3.7,12.6,4.4l-1.8,4
		c-1.6-0.4-3.4-1.2-5.2-2.1L196.7,21.2L196.7,21.2z M184,19.5h4.9c-0.8-0.6-1.5-1.1-2.2-1.6C185.8,18.4,184.9,19,184,19.5z
		 M189.4,25.6c-1.4,0.7-2.9,1.3-4.3,1.7h7.4C191.5,26.8,190.5,26.2,189.4,25.6z M189.1,32.6c-0.6,1.1-1.3,2.1-2,3
		c1.6-0.1,3.3-0.2,5-0.3c-0.3-0.5-0.6-1.1-1-1.7l1.2-0.9c1.7,1.3,3,2.6,4.4,4.5l-2.8,1.7c3.1,0.4,3.5,0.1,3.5-1.2v-5.1H189.1z
		 M188.4,16.7c1,0.4,2,0.9,3.1,1.5l-0.9,1.3h4.5c-2-1.2-3.8-2.6-5.3-4.1C189.3,15.9,188.8,16.2,188.4,16.7z"/>
	<path d="M214.3,24.7v17.2h-3.8V29.6c-0.7,0.8-1.5,1.5-2.2,2.1l-1.1-1.1c2.3-3.1,4.2-6.6,6-11.6l2.5,1v-0.2h2.6
		c0.2-0.9,0.3-1.9,0.4-2.8h-2.3v-1.8h2.6c0.1-1,0.2-2,0.3-2.8l3.3,0.3l-0.3,2.6h4.8v4.6h2.2v1.9H216
		C215.5,22.7,214.9,23.8,214.3,24.7z M208.4,22.9l-1.1-1.2c1.9-2.4,3.7-6,5-9.5l3.7,1.6C214.2,17.3,211.1,20.9,208.4,22.9z
		 M229.1,37.3h-4.7v4.6h-3.8v-4.6h-2.5c-0.2,0.6-0.3,1.2-0.4,1.8l-3-0.5c0.4-1.5,0.9-3.9,1.2-6l3,0.4c-0.1,0.7-0.3,1.6-0.4,2.4h2.1
		v-3.2h-5.5v-1.8h5.5v-1.6h-4.5V23h11.5v5.8h-3.1v1.6h4.4v1.8h-4.4v3.2h4.7v1.9H229.1z M224.1,24.7h-4.7V27h4.7V24.7z M221.6,19.8
		h2.2V17H222C221.9,17.9,221.8,18.9,221.6,19.8z M236.3,22.4v1.9h-2.1v14c0,3.8-3.5,4.6-8.2,2l0.4-1.5c3.4,0.6,4,0.3,4-1.5v-13H228
		v-1.9H236.3z M235.7,16.4h-7.4v-2h7.4V16.4z"/>
	<path d="M269,38.2v2.3h-27.6v-2.3h11.9v-7.5h-8.7v-2.1h8.7v-6.4h-5.7c-1.4,2.7-3.2,5.1-5.2,6.8l-1.2-1.1c2.5-4,4.1-8.8,5-14.5
		l4.3,1c-0.4,1.9-1.1,3.8-1.9,5.6h4.7v-7.6h4.4V20h9.2v2.1h-9.2v6.4h8.7v2.1h-8.7v7.5H269V38.2z"/>
	<path d="M274.3,22.4l-1.1-1.2c2-2.3,3.7-5.8,4.6-9.2l4.1,1.2c-0.3,0.6-0.6,1.2-1,1.8h7.5v1.9h-5.5c0.9,1.2,1.8,2.7,2.2,3.7
		l-3.3,1.1c-0.2-1.4-0.6-3.2-1.1-4.8h-1.1C278.2,19.3,276.3,21.2,274.3,22.4z M302,16.9h-5.7c1,1.1,1.8,2.3,2.5,3.4l-3.3,1.3
		c-0.3-1.4-0.8-3-1.5-4.7h-1.8c-0.8,1.1-1.7,2-2.7,2.8c0.6,0.4,1.2,0.9,1.8,1.5l-1.2,1.1h11.4v5.9h-3.8v-4h-19.4v4h-3.8v-6h13.2
		c-0.8-1.2-1.8-2.5-2.5-3.3l1-1.2l1.7,0.9c1.4-2.1,2.1-4.4,2.6-6.5l3.9,1.1c-0.3,0.6-0.6,1.2-1,1.8h8.5L302,16.9L302,16.9z
		 M282.8,33.7h15.9v8.2h-3.9v-1.6h-12v1.8h-3.9v-16h17.5V32h-13.5v1.7H282.8z M282.8,30.1h9.7V28h-9.7V30.1z M282.8,35.6v2.8h12
		v-2.8H282.8z"/>
	<path d="M318.4,32.2c-2.9,2.4-7.1,4.7-10.8,6.1l-1.3-4c1.4-0.3,2.7-0.6,4-1v-8.2h-3.1v-1.9h3.1v-6.6h-3.4v-1.9h10.5v1.9h-3.2v6.6
		h2.9v1.9h-2.9v7c1.1-0.4,2.2-0.8,3.4-1.3L318.4,32.2z M335.1,38.9v2h-19.6v-2h8.4v-4.4h-5.8v-2h5.8v-3.7H318V13.6h16v15.2h-6.1v3.7
		h5.8v2h-5.8v4.4H335.1z M323.9,15.5h-2.4v4.6h2.4V15.5z M323.9,22h-2.4v4.9h2.4V22z M327.8,20.1h2.5v-4.6h-2.5V20.1z M327.8,26.9
		h2.5V22h-2.5V26.9z"/>
	<path d="M339.9,41.1l-0.7-1.5c3.3-2,6.2-4.7,8.6-8.2l3.6,2.2C349,36.3,344.8,39.3,339.9,41.1z M356.5,30.3v8.2c0,3.6-3.4,5-9,1.8
		l0.4-1.5c3.8,0.7,4.4,0.4,4.4-1.5v-6.4c-3.8,0.4-7.5,0.7-10,0.8l-0.9-3.8c1.9,0.1,3.8,0.2,5.7,0.2c2.4-1.2,4.8-2.7,7-4.4
		c-3.6,0.8-7,1.2-9.7,1.4l-0.9-3.7c1.3,0.1,2.7,0.2,4,0.2c1.2-1.3,2.3-2.7,3.4-4.2c-3.3,0.2-6.3,0.3-8.8,0.3l-0.3-1.6
		c7.5-0.6,14.8-1.7,20.5-3.9l3.6,3.1c-2.9,0.7-6.1,1.2-9.4,1.5c-1.8,1.6-4.2,3.4-6.2,4.8c2.1,0,4.3-0.1,6.4-0.2
		c1.2-1.1,2.4-2.4,3.5-3.7l3.8,2.4c-3.8,3.5-8.1,6.2-12.4,8.1c3.6-0.1,7-0.3,10.2-0.6c-0.6-1-1.2-1.8-1.8-2.6l1.2-1
		c2.2,1.4,5.2,4,6.8,6.2l-3.2,2.4c-0.6-1.1-1.2-2.2-1.9-3.3C361.1,29.5,358.9,29.9,356.5,30.3z M368.3,37.2l-2.8,3.4
		c-1.8-2.1-5.6-5.5-8.4-7.7l0.8-1.4C361.4,32.7,366,35.2,368.3,37.2z"/>
	<path d="M376.6,32.7c0.1,3.5-0.3,6.7-0.9,9.2l-3.7-1.4c1.2-2,2.3-4.7,3-7.9L376.6,32.7z M374.8,28.5c1.4-1.8,2.5-3.6,3.6-5.6
		c-1.8,0.7-3.6,1.2-5.1,1.4l-0.7-3.5c0.6,0,1.2,0,1.8,0c1.1-2.7,2-5.9,2.6-8.9l4,1.1c-1.2,2.7-2.9,5.7-4.5,7.8c1.1,0,2,0,3-0.1
		c0.4-1,0.9-2,1.4-3.1l3.5,1.8c-2.3,3.7-4.8,6.7-7.2,8.9c1.3-0.1,2.7-0.3,4-0.5l-0.7-2.3l1.4-0.6c1.2,1.5,2.4,3.5,3.3,5.6l-2.9,1.1
		c-0.2-0.7-0.4-1.4-0.5-2.1c-2.7,1.2-5.9,2.2-8.5,2.6l-0.8-3.4L374.8,28.5z M381.5,39.6l-3.4,0.7c-0.1-2.2-0.3-5.4-0.6-7.8l1.4-0.3
		C380,34.3,381,37.5,381.5,39.6z M381.5,31.1c1.4,1.6,2.9,3.6,3.8,5.4l-2.9,1.5c-0.6-2-1.3-4.4-2.1-6.3L381.5,31.1z M397.2,41.4
		c-4.4,0-5-0.5-5-4V27.1c-0.6,0.1-1.2,0.3-1.8,0.4v1.3c0,6-1.2,11.1-8.7,13.7l-0.7-1.4c5.3-3.2,5.7-6.5,5.7-12.4V28
		c-0.8,0.1-1.6,0.2-2.3,0.3l-0.8-3.7c0.9,0,1.8,0,2.7,0c0.8-1.8,1.6-4,2.1-6h-4.8v-1.9h8c-1.3-1.2-2.8-2.5-4-3.4l0.7-1.5
		c2.1,0.5,4.8,1.7,6.8,3l-1.4,1.9h6.8v1.9H393c-1.3,2.1-2.8,4.4-4.3,6c2.4-0.1,4.8-0.2,7.1-0.4c-0.5-1.1-1.1-2.2-1.5-3.1l1.2-0.9
		c2.1,1.9,4.5,5.1,5.7,7.1l-3.3,1.9c-0.3-0.9-0.8-2.1-1.3-3.3c-0.2,0.1-0.5,0.2-0.7,0.2v10.2c0,1.3,0.2,1.6,1.4,1.5
		c1.3,0,1.4-0.4,1.4-5.6h1.6C402.3,40.4,401,41.5,397.2,41.4z"/>
</g>
<g>
	<circle class="st0" cx="41.6" cy="24.6" r="22.9"/>
	<path class="st1" d="M37.8,32.5c0,0-2.5-8.1-9.2-9.5c-6.5-1.3-8.7,2.6-9,6.4c0,0-0.5-6.4,6.1-9.3c6.5-2.9,11.9,3.3,11.9,3.9
		c0,0,2.1-6.2,8.7-9.3c6.5-3.1,14.4-0.5,16.8,2.3c0,0-7.2-5.1-14.9-1.3C40.6,19.4,38.4,27.3,37.8,32.5z"/>
	<path class="st2" d="M47.2,44H37.1c0,0-1.5-9.4,3.9-17.1c5.5-7.7,14.1-7.2,17.3-5c3.3,2.2,4.6,6.5,2.4,10.1
		c-2.2,3.6-8.7,5.7-12.9-0.7c0,0,7,2.2,8.6-2.1c1.5-4.3-3.9-6.2-7.2-5c-3.3,1.2-5.3,3.9-6,8.1C42.5,36.5,44.3,41.3,47.2,44z"/>
	<g>
		<path class="st3" d="M37.4,15.6c1,1.8,1.2,3.8,0.7,5.6c-1.8-0.5-3.5-1.7-4.5-3.5c-1-1.8-1.2-3.8-0.7-5.6
			C34.8,12.6,36.4,13.9,37.4,15.6z"/>
		<path class="st3" d="M42,12.2c-0.3,2-1.3,3.8-2.8,4.9c-1.1-1.5-1.7-3.5-1.4-5.5s1.3-3.8,2.8-4.9C41.7,8.2,42.2,10.1,42,12.2z"/>
		<path class="st3" d="M46,10.2c-0.5,1.4-1.4,2.4-2.6,3.1c-0.6-1.2-0.7-2.6-0.3-4s1.4-2.4,2.6-3.1C46.3,7.4,46.4,8.8,46,10.2z"/>
	</g>
</g>
</svg>
