<?xml version="1.0" encoding="utf-8"?>
<!-- Generator: Adobe Illustrator 25.4.1, SVG Export Plug-In . SVG Version: 6.00 Build 0)  -->
<svg version="1.1" id="圖層_1" xmlns="http://www.w3.org/2000/svg" xmlns:xlink="http://www.w3.org/1999/xlink" x="0px" y="0px"
	 viewBox="0 0 420 50" style="enable-background:new 0 0 420 50;" xml:space="preserve">
<style type="text/css">
	.st0{fill:#F9D335;}
	.st1{fill:#232B73;}
</style>
<g>
	<path class="st0" d="M48.2,25.1c0,0,2.3,6.7,10.9,6.7s10.8-7.7,10.8-7.7s2.9-10-7.2-13.9c-12.8-5-21.4,6.2-21.4,6.2
		s-9.5,9.2-9.2,28.1h16.7c0,0-4.4-3.5-5.9-9c-1.5-5.3-1.2-12.7,4.1-17.5c0,0,3.3-3.9,10.2-2.7c6.4,1.1,4.6,8.2,3.5,9.4
		C58.9,26.3,55.5,29,48.2,25.1z"/>
	<path class="st1" d="M62.3,6.7c-1.3-0.6-2.6-1.2-4.8-1.5c-3.8-0.6-7.4,0-8.6,0.2c-7,1.6-12.1,6-16,12c-0.8,1.3-1.5,2.7-2.3,4.1
		c-0.9-0.8-1.6-1.6-2.4-2.2c-3.5-2.9-7.4-4.6-12-4c-7.3,1-14.3,7.7-16,14.7c1.7-1.9,3.5-4.5,5.8-6.6c5-4.5,11.3-4.5,16.6-0.3
		c3.7,2.9,6,6.8,7.7,11.2c0.2,0.6,0.5,1.1,0.7,1.7C30.9,17.3,46.3,2.8,64.3,7.7C63.6,7.3,63,7,62.3,6.7z"/>
</g>
<g>
	<path d="M108.3,40.6h11.2v2.3H92.8v-2.3h11.1v-5.1h-7.7v-2.2h7.7v-4.6h-6.2V28c-1.8,1-3.6,1.9-5.6,2.5l-0.7-1.6
		c5.6-2.9,9.3-7.3,11-11.2H96v-2.2h12c2.1,4.4,6.6,8.2,13.1,10.4l-2.3,4.2c-1.3-0.6-2.7-1.4-4-2.4v1h-6.5v4.6h7.7v2.2h-7.7V40.6z
		 M113.4,26.7c-2.8-2.3-5.3-5.3-6.5-8.6c-1.4,3.3-4,6.2-7.3,8.6H113.4z"/>
	<path d="M152.1,15.4v28.5h-3.9v-1.4H130V44h-3.9V15.4H152.1z M148.2,17.4H144c1,0.8,2.3,2.2,3.1,3.4l-1.4,0.9h2v1.9h-5.4
		c0.1,2.4,0.3,4.5,0.5,6.3c0.6-1.5,1.2-3.2,1.6-5.2l2.8,0.9c-0.7,2.9-1.9,5.6-3.5,8c0.4,1.1,0.9,1.8,1.4,2.1c0.5,0.3,0.7-0.8,0.7-4
		h1.5c1.1,6.5-0.1,8.2-2.2,7.7c-1.6-0.4-2.7-1.5-3.6-3.3c-1.6,1.6-3.6,2.9-5.9,3.8l-0.7-1.3c2.4-1.5,4.3-3,5.7-4.9
		c-0.9-2.9-1.2-6.5-1.4-10.2h-8.7v-1.9h8.6c0-1.2-0.1-2.4-0.1-3.5h3.1c0,1.2,0,2.4,0,3.5h2.2c-0.5-1.3-1.2-2.6-1.7-3.5l1.1-0.7H130
		v23.1h18.2V17.4z M131,38.1l-1-3.1c3.2-0.5,6.7-1.5,9.2-2.3l0.5,1.3C137.3,35.6,133.9,37.3,131,38.1z M131.2,25.2h7.2v7.1h-7.2
		V25.2z M133.9,30.6h2V27h-2V30.6z"/>
	<path d="M186.4,38.3l-2.5,3.7c-3.2-2-5.8-5.8-7.2-10.5l-1.4,0.5c0.6,1.6,1,3.3,1,5.1c0.1,6.6-3.8,8.5-9.6,5.1l0.5-1.6
		c4.6,0.8,5.3,0.4,5.3-4.1v-0.4c-3.1,2.5-8,4.9-13.6,6.1l-0.5-1.6c5.3-1.7,10-4.6,13.6-8.3c-0.1-0.4-0.2-0.7-0.3-1.1
		c-3.5,2.5-7.9,4.2-12.4,5.2l-0.5-1.6c4.4-1.5,8.4-3.6,11.7-6.7c-0.1-0.3-0.3-0.6-0.4-0.8c-3.3,1.8-7,3-10,3.6l-0.5-1.6
		c4.4-1.4,7.1-3.1,9.2-5h-5.1v-2h17v2h-6.5c-0.7,0.7-1.6,1.3-2.4,1.9c1.1,1.2,2.1,2.5,2.8,4c2.1-1.5,3.7-3,5.3-5l3,2.6
		c-1.5,1.2-3.1,2.1-4.7,2.9C180.2,34.3,182.9,36.5,186.4,38.3z M162.5,24.6h-3.8v-6.5h13.3c-1.6-1-3.5-2-5.1-2.8l0.5-1.6
		c2.6,0.3,5.8,1.1,8,2.1l-1.2,2.3h11.1v6.4h-3.8v-4.4h-19.1V24.6z"/>
	<path d="M212.7,23.2h-4.3l1.7,1.1c-0.6,0.6-1.3,1.2-2.1,1.8c1,0.4,1.9,0.8,2.7,1.2l-1.3,2.2h2v-5.2h3.8v7h-8.4
		c-0.2,0.5-0.4,1-0.7,1.5h11.3v8c0,3.3-3.5,4.4-8.3,1.7l0.4-1.6c0.1,0,0.3,0,0.4,0.1c-0.3-0.7-0.6-1.3-1-2c-3.6,1.2-7.6,2-10.5,2.4
		l-0.8-3.6c1,0,2,0,3.1,0c0.4-1,0.7-2,1-3H197v9.3H193V32.7h9.3c0.1-0.5,0.2-1,0.3-1.5h-7.7v-6.9h3.8v5.1h1.1l-0.4-1
		c1.3-0.5,2.5-1.2,3.6-1.9c-1.2-0.5-2.2-1.1-3.2-1.4l0.5-1.4c1.4,0.3,3.1,0.8,4.7,1.3c0.6-0.5,1.3-1.1,1.9-1.8h-9.1v-0.7
		c-2.2,1-4.5,1.7-6.6,2.2l-0.5-1.5c5.2-2.2,10-5.6,12.9-9.6l4.2,1.5c-0.3,0.4-0.5,0.7-0.8,1c3.8,2.3,7.8,3.7,12.6,4.4l-1.8,4
		c-1.6-0.4-3.4-1.2-5.2-2.1V23.2z M200,21.5h4.9c-0.8-0.6-1.5-1.1-2.2-1.6C201.8,20.4,200.9,21,200,21.5z M205.4,27.6
		c-1.4,0.7-2.9,1.3-4.3,1.7h7.4C207.5,28.8,206.5,28.2,205.4,27.6z M205.1,34.6c-0.6,1.1-1.3,2.1-2,3c1.6-0.1,3.3-0.2,5-0.3
		c-0.3-0.5-0.6-1.1-1-1.7l1.2-0.9c1.7,1.3,3,2.6,4.4,4.5l-2.8,1.7c3.1,0.4,3.5,0.1,3.5-1.2v-5.1H205.1z M204.4,18.7
		c1,0.4,2,0.9,3.1,1.5l-0.9,1.3h4.5c-2-1.2-3.8-2.6-5.3-4.1C205.3,17.9,204.8,18.2,204.4,18.7z"/>
	<path d="M230.3,26.7v17.2h-3.8V31.6c-0.7,0.8-1.5,1.5-2.2,2.1l-1.1-1.1c2.3-3.1,4.2-6.6,6-11.6l2.5,1v-0.2h2.6
		c0.2-0.9,0.3-1.9,0.4-2.8h-2.3v-1.8h2.6c0.1-1,0.2-2,0.3-2.8l3.3,0.3l-0.3,2.6h4.8v4.6h2.2v1.9h-13.3
		C231.5,24.7,230.9,25.8,230.3,26.7z M224.4,24.9l-1.1-1.2c1.9-2.4,3.7-6,5-9.5l3.7,1.6C230.2,19.3,227.1,22.9,224.4,24.9z
		 M245.1,39.3h-4.7v4.6h-3.8v-4.6h-2.5c-0.2,0.6-0.3,1.2-0.4,1.8l-3-0.5c0.4-1.5,0.9-3.9,1.2-6l3,0.4c-0.1,0.7-0.3,1.6-0.4,2.4h2.1
		v-3.2h-5.5v-1.8h5.5v-1.6h-4.5v-5.8h11.5v5.8h-3.1v1.6h4.4v1.8h-4.4v3.2h4.7V39.3z M240.1,26.7h-4.7V29h4.7V26.7z M237.6,21.8h2.2
		v-2.8H238C237.9,19.9,237.8,20.9,237.6,21.8z M252.3,24.4v1.9h-2.1v14c0,3.8-3.5,4.6-8.2,2l0.4-1.5c3.4,0.6,4,0.3,4-1.5V26.3H244
		v-1.9H252.3z M251.7,18.4h-7.4v-2h7.4V18.4z"/>
	<path d="M285,40.2v2.3h-27.6v-2.3h11.9v-7.5h-8.7v-2.1h8.7v-6.4h-5.7c-1.4,2.7-3.2,5.1-5.2,6.8l-1.2-1.1c2.5-4,4.1-8.8,5-14.5
		l4.3,1c-0.4,1.9-1.1,3.8-1.9,5.6h4.7v-7.6h4.4V22h9.2v2.1h-9.2v6.4h8.7v2.1h-8.7v7.5H285z"/>
	<path d="M290.3,24.4l-1.1-1.2c2-2.3,3.7-5.8,4.6-9.2l4.1,1.2c-0.3,0.6-0.6,1.2-1,1.8h7.5v1.9h-5.5c0.9,1.2,1.8,2.7,2.2,3.7
		l-3.3,1.1c-0.2-1.4-0.6-3.2-1.1-4.8h-1.1C294.2,21.3,292.3,23.2,290.3,24.4z M318,18.9h-5.7c1,1.1,1.8,2.3,2.5,3.4l-3.3,1.3
		c-0.3-1.4-0.8-3-1.5-4.7h-1.8c-0.8,1.1-1.7,2-2.7,2.8c0.6,0.4,1.2,0.9,1.8,1.5l-1.2,1.1h11.4v5.9h-3.8v-4h-19.4v4h-3.8v-6h13.2
		c-0.8-1.2-1.8-2.5-2.5-3.3l1-1.2l1.7,0.9c1.4-2.1,2.1-4.4,2.6-6.5l3.9,1.1c-0.3,0.6-0.6,1.2-1,1.8h8.5V18.9z M298.8,35.7h15.9v8.2
		h-3.9v-1.6h-12v1.8h-3.9v-16h17.5v5.9h-13.5V35.7z M298.8,32.1h9.7v-2.1h-9.7V32.1z M298.8,37.6v2.8h12v-2.8H298.8z"/>
	<path d="M334.4,34.2c-2.9,2.4-7.1,4.7-10.8,6.1l-1.3-4c1.4-0.3,2.7-0.6,4-1v-8.2h-3.1v-1.9h3.1v-6.6h-3.4v-1.9h10.5v1.9h-3.2v6.6
		h2.9v1.9h-2.9v7c1.1-0.4,2.2-0.8,3.4-1.3L334.4,34.2z M351.1,40.9v2h-19.6v-2h8.4v-4.4h-5.8v-2h5.8v-3.7h-5.9V15.6H350v15.2h-6.1
		v3.7h5.8v2h-5.8v4.4H351.1z M339.9,17.5h-2.4v4.6h2.4V17.5z M339.9,24h-2.4v4.9h2.4V24z M343.8,22.1h2.5v-4.6h-2.5V22.1z
		 M343.8,28.9h2.5V24h-2.5V28.9z"/>
	<path d="M355.9,43.1l-0.7-1.5c3.3-2,6.2-4.7,8.6-8.2l3.6,2.2C365,38.3,360.8,41.3,355.9,43.1z M372.5,32.3v8.2c0,3.6-3.4,5-9,1.8
		l0.4-1.5c3.8,0.7,4.4,0.4,4.4-1.5v-6.4c-3.8,0.4-7.5,0.7-10,0.8l-0.9-3.8c1.9,0.1,3.8,0.2,5.7,0.2c2.4-1.2,4.8-2.7,7-4.4
		c-3.6,0.8-7,1.2-9.7,1.4l-0.9-3.7c1.3,0.1,2.7,0.2,4,0.2c1.2-1.3,2.3-2.7,3.4-4.2c-3.3,0.2-6.3,0.3-8.8,0.3l-0.3-1.6
		c7.5-0.6,14.8-1.7,20.5-3.9l3.6,3.1c-2.9,0.7-6.1,1.2-9.4,1.5c-1.8,1.6-4.2,3.4-6.2,4.8c2.1,0,4.3-0.1,6.4-0.2
		c1.2-1.1,2.4-2.4,3.5-3.7l3.8,2.4c-3.8,3.5-8.1,6.2-12.4,8.1c3.6-0.1,7-0.3,10.2-0.6c-0.6-1-1.2-1.8-1.8-2.6l1.2-1
		c2.2,1.4,5.2,4,6.8,6.2l-3.2,2.4c-0.6-1.1-1.2-2.2-1.9-3.3C377.1,31.5,374.9,31.9,372.5,32.3z M384.3,39.2l-2.8,3.4
		c-1.8-2.1-5.6-5.5-8.4-7.7l0.8-1.4C377.4,34.7,382,37.2,384.3,39.2z"/>
	<path d="M392.6,34.7c0.1,3.5-0.3,6.7-0.9,9.2l-3.7-1.4c1.2-2,2.3-4.7,3-7.9L392.6,34.7z M390.8,30.5c1.4-1.8,2.5-3.6,3.6-5.6
		c-1.8,0.7-3.6,1.2-5.1,1.4l-0.7-3.5c0.6,0,1.2,0,1.8,0c1.1-2.7,2-5.9,2.6-8.9l4,1.1c-1.2,2.7-2.9,5.7-4.5,7.8c1.1,0,2,0,3-0.1
		c0.4-1,0.9-2,1.4-3.1l3.5,1.8c-2.3,3.7-4.8,6.7-7.2,8.9c1.3-0.1,2.7-0.3,4-0.5l-0.7-2.3l1.4-0.6c1.2,1.5,2.4,3.5,3.3,5.6l-2.9,1.1
		c-0.2-0.7-0.4-1.4-0.5-2.1c-2.7,1.2-5.9,2.2-8.5,2.6l-0.8-3.4L390.8,30.5z M397.5,41.6l-3.4,0.7c-0.1-2.2-0.3-5.4-0.6-7.8l1.4-0.3
		C396,36.3,397,39.5,397.5,41.6z M397.5,33.1c1.4,1.6,2.9,3.6,3.8,5.4l-2.9,1.5c-0.6-2-1.3-4.4-2.1-6.3L397.5,33.1z M413.2,43.4
		c-4.4,0-5-0.5-5-4V29.1c-0.6,0.1-1.2,0.3-1.8,0.4v1.3c0,6-1.2,11.1-8.7,13.7l-0.7-1.4c5.3-3.2,5.7-6.5,5.7-12.4V30
		c-0.8,0.1-1.6,0.2-2.3,0.3l-0.8-3.7c0.9,0,1.8,0,2.7,0c0.8-1.8,1.6-4,2.1-6h-4.8v-1.9h8c-1.3-1.2-2.8-2.5-4-3.4l0.7-1.5
		c2.1,0.5,4.8,1.7,6.8,3l-1.4,1.9h6.8v1.9H409c-1.3,2.1-2.8,4.4-4.3,6c2.4-0.1,4.8-0.2,7.1-0.4c-0.5-1.1-1.1-2.2-1.5-3.1l1.2-0.9
		c2.1,1.9,4.5,5.1,5.7,7.1l-3.3,1.9c-0.3-0.9-0.8-2.1-1.3-3.3c-0.2,0.1-0.5,0.2-0.7,0.2v10.2c0,1.3,0.2,1.6,1.4,1.5
		c1.3,0,1.4-0.4,1.4-5.6h1.6C418.3,42.4,417,43.5,413.2,43.4z"/>
</g>
</svg>
