<?xml version="1.0" encoding="utf-8"?>
<!-- Generator: Adobe Illustrator 27.9.0, SVG Export Plug-In . SVG Version: 6.00 Build 0)  -->
<svg version="1.1" id="圖層_1" xmlns="http://www.w3.org/2000/svg" xmlns:xlink="http://www.w3.org/1999/xlink" x="0px" y="0px"
	 viewBox="0 0 320 50" style="enable-background:new 0 0 320 50;" xml:space="preserve">
<style type="text/css">
	.st0{fill:#E4332D;}
	.st1{enable-background:new    ;}
	.st2{fill:none;}
	.st3{fill:#6FBA2C;}
	.st4{fill:#002870;}
	.st5{fill:#FABE00;}
	.st6{fill:#00744B;}
</style>
<g>
	<path class="st0" d="M231.5,44.3c-0.1-0.1-0.1-0.2-0.2-0.2c-0.2-0.2-0.4-0.3-0.7-0.2c-0.1,0-0.2,0.1-0.3,0.1
		c-0.2,0-0.3-0.1-0.4-0.3c0-0.2-0.1-0.5-0.1-0.7c-0.1-0.7,0-1.4-0.3-2.1c-0.2-0.5-0.5-0.9-0.9-1.2c-1-0.8-1.8-1.7-2.3-2.9
		c-0.3-0.9-0.6-1.7-0.9-2.6c-0.1-0.2-0.1-0.5-0.1-0.7c0-0.5,0-1,0-1.5s-0.1-0.6-0.6-0.7c-0.1,0-0.3,0-0.4,0.1
		c-0.3,0.1-0.6,0.3-0.9,0.4c-0.7,0.3-1.4,0.2-2.1-0.1c-1.2-0.6-2-1.5-2.6-2.7c-0.3-0.6-0.1-1,0.6-1.2c0.5-0.1,1-0.4,1.4-0.8
		c0.3-0.3,0.6-0.5,0.9-0.8c0.5-0.6,1.1-1.3,1.6-1.9c0.2-0.3,0.5-0.6,0.7-0.9c0,0,0-0.1,0.1-0.1c-0.5,0-0.8-0.2-1.1-0.5
		c-0.1,0-0.1-0.1-0.1-0.2c0-0.3,0-0.6,0.1-0.8c0.1-0.2,0.3-0.2,0.5-0.3c0.4,0,0.9,0.1,1.3,0.3c0.2,0,0.3,0.1,0.5,0.1
		c0.1,0,0.2,0,0.1-0.2c-0.1-0.3-0.3-0.4-0.5-0.5c-0.3-0.1-0.6-0.1-0.9-0.2c-0.5,0-1.1,0-1.6-0.1c-0.2,0-0.3-0.1-0.5-0.1
		c-0.2-0.1-0.2-0.2-0.2-0.4c0.1-0.1,0.2-0.3,0.3-0.3c0.6-0.4,1.2-0.6,1.9-0.7c0.7-0.2,1.5-0.2,2.2-0.2c0.6,0,1.1,0.1,1.7,0.1
		c0.8,0,1.6,0.4,2.4,0.5c0.2,0,0.4,0.1,0.7,0.1c0.2,0,0.4-0.1,0.6-0.3c0.2-0.2,0.4-0.5,0.6-0.7c0.7-0.8,1.4-1.6,2-2.4
		c0.3-0.4,0.6-0.7,0.9-1.1c0.2-0.2,0.5-0.4,0.7-0.5c0.6-0.3,1.2-0.5,1.8-0.8c0.4-0.2,0.8-0.5,1.3-0.7c0.3-0.2,0.6-0.4,0.9-0.5
		c0.3-0.1,0.7-0.1,1,0.2c0.2,0.3,0.5,0.5,0.8,0.7c0.4,0.3,0.8,0.4,1.3,0.5c0.1,0,0.3,0.1,0.4,0.1c0.1,0,0.2,0.1,0.2,0.2
		c0.1,0.3,0.2,0.5,0.5,0.7c0.1,0,0.1,0.1,0.2,0.2c0,0.1,0,0.2,0,0.3c-0.4,0.3-0.7,0.6-1.1,0.9c-0.1,0.1-0.2,0.2-0.2,0.4
		c-0.1,0.6-0.2,1.1-0.1,1.7c0,0.3,0,0.3-0.3,0.4c-0.8,0.2-1.7,0.3-2.5,0.5c-0.7,0.1-1.4,0.2-2.1,0.3c-0.7,0.1-1.4,0.2-2.1,0.3
		c-0.5,0.1-1.1,0.1-1.6,0.2c-1,0.1-2,0.1-3,0.1c-0.5,0-1.1-0.2-1.6-0.3c-0.7-0.1-1.3-0.3-2-0.4s-1.3-0.1-2-0.1
		c-0.8,0-1.5,0.1-2.2,0.4c0,0-0.1,0-0.1,0.1c-0.1,0-0.1,0.1-0.2,0.2c0.4,0,0.7,0,1,0c0.5,0,1.1,0.1,1.6,0.3c0.4,0.2,0.7,0.4,0.8,0.8
		c0.1,0.2,0,0.4-0.1,0.6c-0.2,0.2-0.5,0.3-0.9,0.2c-0.3-0.1-0.6-0.2-0.9-0.3c-0.1,0-0.1,0-0.2-0.1c-0.2-0.1-0.4,0-0.5,0.2
		s0.1,0.5,0.3,0.5s0.4,0.1,0.6,0.1c0.1,0,0.3,0,0.4,0c0.2,0,0.2,0.1,0.2,0.2c0,0.3-0.1,0.4-0.3,0.6c-0.3,0.3-0.5,0.6-0.7,0.8
		c-0.4,0.6-0.9,1.1-1.3,1.7c-0.5,0.6-1.1,1.2-1.8,1.6c-0.4,0.3-0.9,0.5-1.4,0.6c-0.2,0-0.2,0.1-0.1,0.3c0.1,0.4,0.4,0.8,0.6,1.1
		c0.2,0.3,0.5,0.6,0.8,0.8c0.6,0.6,1.3,0.9,2.2,0.8c0.3,0,0.5-0.2,0.8-0.3c0.3-0.1,0.6-0.3,0.9-0.3c0.3,0,0.6,0.1,0.8,0.3
		c0.7,0.5,1.4,0.9,2.1,1.4c0.8,0.5,1.7,0.8,2.6,1c0.5,0.1,0.9,0.1,1.4,0.2c0.2,0,0.5-0.1,0.6-0.4c-0.3-0.1-0.5-0.1-0.8-0.2
		c-0.7-0.2-1.2-0.5-1.6-1.1c-0.2-0.4-0.4-0.8-0.7-1.2c-0.1-0.2-0.2-0.4-0.4-0.5c-0.1-0.1-0.3-0.2-0.5-0.2c-0.4,0-0.8,0-1.2,0
		c0-0.2-0.1-0.4-0.1-0.6c0.5-0.1,1-0.2,1.5-0.3c0.1,0,0.3-0.1,0.4-0.2c0.2-0.1,0.2-0.2,0.2-0.4c-0.2,0-0.3,0.1-0.4,0.1
		c-0.6,0.2-1.1,0.4-1.8,0.4c-0.2,0-0.5,0-0.7,0c-0.1,0-0.2-0.1-0.2-0.1c-0.3-0.4-0.4-0.9-0.5-1.4c0-0.2,0-0.4,0-0.6s0.1-0.3,0.2-0.2
		c0.2,0,0.3,0,0.5,0.1c0.5,0.2,1,0,1.3-0.3c0.2-0.1,0.3-0.3,0.5-0.5s0.2-0.5,0.1-0.7c-0.1-0.3-0.4-0.5-0.7-0.5
		c-0.2,0-0.5,0.1-0.7,0.2c-0.1,0-0.2,0-0.3,0.1c0.2-1.1,1-2,2.2-2.3c0.5-0.1,1.1-0.1,1.6-0.1c0.4,0,0.8,0.1,1.1,0.2
		c0.5,0.1,1,0.1,1.5,0c1-0.2,1.8-0.6,2.8-0.9c0.8-0.3,1.7-0.4,2.5-0.6c0.6-0.1,1.2-0.2,1.8-0.2s1.3,0,1.9,0
		c-0.1,0.2-0.2,0.5-0.4,0.8c-0.2,0.4-0.4,0.8-0.6,1.2c-0.3,0.6-0.5,1.2-0.6,1.8c-0.3,1.6-0.6,3.2-1,4.8c-0.3,0.9-0.6,1.8-1,2.6
		c0,0-0.1,0.1-0.1,0.2c-0.1-0.3-0.2-0.6-0.3-0.9c-0.2-0.9-0.5-1.7-1-2.5c-0.3-0.4-0.7-0.7-1-0.9c-0.1-0.1-0.2-0.2-0.3-0.3l0,0
		c0.2,0,0.3,0,0.5,0c0.3,0,0.6,0,0.9-0.1c0.5-0.1,0.7-0.5,0.8-1c0-0.1,0-0.3,0-0.4s-0.1-0.2-0.2-0.2c-0.1,0-0.3,0-0.3,0.1
		c-0.1,0.1-0.1,0.3-0.2,0.4c-0.1,0.2-0.3,0.3-0.5,0.2c-0.1-0.1-0.2-0.3-0.1-0.5c0.1-0.1,0.1-0.2,0.2-0.3c0.2-0.2,0.2-0.6,0-0.7
		c-0.2-0.2-0.5-0.2-0.7,0c-0.2,0.1-0.2,0.3-0.3,0.5c0,0.1,0,0.1,0,0.2c-0.1,0.3-0.2,0.4-0.5,0.4c-0.2,0-0.4-0.2-0.4-0.5
		c0-0.5,0.2-0.9,0.6-1.1c0.1-0.1,0.2-0.2,0.3-0.3c-0.7,0-1.6,0.5-2.1,1c-0.1,0.1-0.1,0.2-0.1,0.3c0,0.3,0,0.6,0,0.9
		c0,0.1,0.1,0.2,0.2,0.4c0.1,0.1,0.1,0.2,0.2,0.2c-0.5,0.1-1,0.2-1.4,0.3c-0.5,0.1-0.8,0.4-1.1,0.7c-0.1,0.1-0.2,0.3-0.3,0.4
		c0.2,0,0.4,0,0.6,0c0.3,0,0.6,0,0.9,0.2c0,0,0.1,0.1,0.1,0.2c0,0.2-0.2,0.4-0.4,0.5c-0.5,0.3-0.6,0.7-0.6,1.2c0,0.1,0,0.2,0.1,0.2
		c0.2,0.2,0.5,0.4,0.8,0.5c0.5,0.3,0.7,0.1,0.8-0.5c0-0.2,0-0.4,0-0.7c0-0.2,0.1-0.2,0.2-0.2c0,0,0.1,0.1,0.1,0.2
		c0.1,0.4,0.1,0.8-0.1,1.1c-0.2,0.6-0.5,1.1-0.7,1.7c-0.3,0.7-0.6,1.4-0.8,2.1c-0.2,0.8-0.1,1.6,0.2,2.4c0.2,0.5,0.5,1,1,1.4
		c0.1,0.1,0.1,0.2,0.2,0.3c0.1,0.1,0.1,0.2,0.1,0.4c-0.2,0.7-0.2,1.4-0.4,2c-0.2,0.7-0.5,1.4-0.7,2.1c-0.1,0.2-0.2,0.3-0.3,0.5
		C231.9,44.3,231.7,44.3,231.5,44.3z M229.4,26.5c0.3,0,0.4-0.1,0.4-0.4c0-0.2-0.2-0.4-0.4-0.4s-0.4,0.2-0.4,0.4
		S229.2,26.5,229.4,26.5z"/>
	<path class="st0" d="M225.1,25.3c-0.2,0-0.5-0.2-0.5-0.5s0.2-0.5,0.5-0.5c0.2,0,0.5,0.3,0.5,0.5C225.5,25,225.3,25.3,225.1,25.3z"
		/>
	<path class="st0" d="M233,28.3c0-0.2,0.2-0.4,0.4-0.4s0.4,0.2,0.4,0.4c0,0.2-0.2,0.5-0.4,0.5C233.2,28.7,233,28.5,233,28.3z"/>
</g>
<g class="st1">
	<path d="M239.4,40.6v2.2c0,0.1-0.1,0.2-0.2,0.2c-0.2,0-0.2-0.1-0.2-0.2v-0.2h-1.6v2.1c0,0.2-0.1,0.2-0.2,0.2s-0.2-0.1-0.2-0.2v-2.1
		h-1.6v0.3c0,0.2-0.1,0.2-0.2,0.2c-0.1,0-0.2-0.1-0.2-0.2v-2.2c0-0.2,0.1-0.3,0.3-0.3h1.8v-0.9c0-0.2,0.1-0.2,0.2-0.2
		s0.2,0.1,0.2,0.2v0.9h1.8C239.3,40.3,239.4,40.4,239.4,40.6z M236.9,40.7h-1.5c0,0-0.1,0-0.1,0.1v1.5h1.6V40.7z M238.9,42.2v-1.5
		c0,0,0-0.1-0.1-0.1h-1.5v1.5H238.9z"/>
	<path d="M245.8,44.6c-0.1,0.2-0.2,0.2-0.4,0.2c-1-0.4-1.8-1.3-2.1-2.3h-0.1c-0.3,1.1-1,1.9-2.6,2.3c-0.1,0-0.2,0-0.2-0.1
		c0-0.1,0-0.1,0.1-0.2c1.3-0.5,1.9-1.2,2.2-2.1h-2.1c-0.1,0-0.2-0.1-0.2-0.2c0-0.1,0.1-0.2,0.2-0.2h0.6v-1.7c0-0.2,0.1-0.3,0.3-0.3
		h1.4v-0.8c0-0.2,0.1-0.2,0.2-0.2c0.2,0,0.2,0.1,0.2,0.2v0.8h1.4c0.2,0,0.3,0.1,0.3,0.3v1.7h0.6c0.1,0,0.2,0.1,0.2,0.2
		c0,0.1-0.1,0.2-0.2,0.2h-2.1c0.4,0.8,1.1,1.4,2.1,1.7C245.8,44.3,245.9,44.4,245.8,44.6z M242.8,42.1c0.1-0.4,0.1-0.8,0.1-1.2v-0.4
		h-1.1c0,0-0.1,0-0.1,0.1v1.5H242.8z M243.3,40.5v0.5c0,0.4,0,0.7-0.1,1.1h1.3v-1.5c0,0,0-0.1-0.1-0.1H243.3z"/>
	<path d="M249.2,40.2c-0.3,0.2-0.6,0.5-1,0.6c0.5,0,0.9,0,1.3,0c0.2-0.1,0.4-0.3,0.6-0.4c0.1-0.1,0.2-0.1,0.3,0
		c0.1,0.1,0.1,0.2,0,0.3c-0.6,0.4-1.2,0.7-1.9,1c0.8,0,1.7-0.1,2.3-0.1c-0.1-0.1-0.2-0.3-0.3-0.4c-0.1-0.1-0.1-0.1,0-0.2
		c0.1-0.1,0.1-0.1,0.2,0c0.4,0.3,0.7,0.6,1,1c0.1,0.1,0.1,0.2,0,0.3s-0.3,0.1-0.3-0.1c-0.1-0.1-0.2-0.3-0.3-0.4
		c-1.1,0.2-2.7,0.3-4.1,0.3c-0.2,0-0.3-0.1-0.3-0.2c0-0.2,0.1-0.2,0.2-0.2c0.2,0,0.5,0,0.8,0c0.5-0.2,1-0.4,1.4-0.7
		c-0.6,0.1-1.2,0.1-1.8,0.2c-0.1,0-0.2-0.1-0.2-0.2c0-0.2,0.1-0.2,0.2-0.2c0.1,0,0.2,0,0.3,0c0.3-0.2,0.5-0.4,0.8-0.6h-1.9
		c-0.1,0-0.2-0.1-0.2-0.2c0-0.1,0.1-0.1,0.2-0.1h2.3v-0.5c0-0.2,0.1-0.2,0.2-0.2c0.2,0,0.2,0.1,0.2,0.2v0.5h2.3
		c0.1,0,0.2,0.1,0.2,0.1c0,0.1-0.1,0.2-0.2,0.2H249.2z M251,42.6v2c0,0.1-0.1,0.2-0.2,0.2c-0.1,0-0.2-0.1-0.2-0.2v-0.2h-2.9v0.2
		c0,0.1-0.1,0.2-0.2,0.2c-0.1,0-0.2-0.1-0.2-0.2v-2c0-0.2,0.1-0.3,0.3-0.3h3.3C250.9,42.4,251,42.5,251,42.6z M248.9,42.7h-1.2
		c0,0-0.1,0-0.1,0.1v0.5h1.2V42.7z M248.9,43.5h-1.2v0.6h1.2V43.5z M249.3,43.2h1.2v-0.5c0,0,0-0.1-0.1-0.1h-1.2V43.2z M250.6,44.1
		v-0.6h-1.2v0.6H250.6z"/>
	<path d="M253.3,42.3c0,1.1-0.2,1.9-0.7,2.5c-0.1,0.1-0.1,0.1-0.2,0c-0.1,0-0.1-0.1,0-0.2c0.4-0.5,0.4-1.2,0.4-2.3v-0.8
		c0-0.2,0.1-0.3,0.3-0.3h0.6c-0.1,0-0.1,0-0.1-0.1c0-0.1,0-0.1,0.1-0.1c0.5-0.1,0.9-0.2,1.3-0.3c-0.4-0.1-0.8-0.2-1.1-0.3
		c-0.1,0-0.1-0.1-0.1-0.1c0-0.1,0.1-0.1,0.2-0.1c0.4,0.1,1,0.2,1.5,0.3c0.2-0.1,0.5-0.3,0.7-0.4h-3c-0.1,0-0.2-0.1-0.2-0.2
		s0.1-0.1,0.2-0.1h1.9v-0.4c0-0.1,0.1-0.2,0.2-0.2s0.2,0.1,0.2,0.2v0.4h1.9c0.1,0,0.2,0.1,0.2,0.1c0,0.1-0.1,0.2-0.2,0.2h-0.9l0,0
		c0.1,0.1,0.1,0.2,0,0.3c-0.1,0.1-0.3,0.2-0.5,0.3c0.3,0.1,0.5,0.2,0.8,0.3c0.1,0,0.2,0.2,0.1,0.3c0,0.1-0.1,0.1-0.1,0.1h0.7
		c0.1,0,0.2,0.1,0.2,0.2c0,0.1-0.1,0.2-0.2,0.2h-4.1c0,0-0.1,0-0.1,0.1V42.3z M257.8,44.4c0,0.1-0.1,0.2-0.2,0.2h-4.2
		c-0.1,0-0.2-0.1-0.2-0.2c0-0.1,0.1-0.2,0.2-0.2h1.9v-0.7h-1.2c-0.1,0-0.2-0.1-0.2-0.1s0.1-0.2,0.2-0.2h1.2v-0.6h-1.1
		c-0.2,0.3-0.4,0.6-0.7,0.8c-0.1,0.1-0.1,0.1-0.2,0c-0.1-0.1,0-0.1,0-0.2c0.3-0.4,0.6-0.9,0.7-1.4c0-0.2,0.1-0.2,0.3-0.2
		c0.1,0,0.2,0.1,0.1,0.3c0,0.1-0.1,0.2-0.1,0.4h0.9v-0.4c0-0.1,0.1-0.2,0.2-0.2c0.1,0,0.2,0.1,0.2,0.2v0.4h1.4
		c0.1,0,0.2,0.1,0.2,0.2s-0.1,0.2-0.2,0.2h-1.4v0.6h1.3c0.1,0,0.2,0.1,0.2,0.2s-0.1,0.1-0.2,0.1h-1.3v0.7h1.9
		C257.7,44.3,257.8,44.3,257.8,44.4z M253.8,41.2h2.8l0,0c-0.3-0.1-0.7-0.3-1.1-0.4C255,41,254.5,41.2,253.8,41.2z"/>
	<path d="M263.8,41c0,0.2-0.2,0.2-0.3,0.2c-0.1,0-0.2-0.1-0.4-0.1c0,0,0,0.1,0,0.2v0.9c0,0.2-0.1,0.3-0.3,0.3h-3.5
		c-0.2,0-0.3-0.1-0.3-0.3v-0.9c0-0.1,0-0.1,0-0.2c-0.2,0.1-0.3,0.1-0.5,0.2c-0.1,0-0.1,0-0.2-0.1c0-0.1,0-0.1,0.1-0.2
		c1-0.4,1.8-1,2.4-1.7c0.1-0.1,0.2-0.1,0.4-0.1c0.1,0.1,0.1,0.2,0.1,0.3c0.6,0.6,1.5,1,2.2,1.2C263.8,40.7,263.8,40.8,263.8,41z
		 M262.9,41c-0.3-0.1-0.6-0.3-0.8-0.5v0c0,0.1-0.1,0.2-0.1,0.2h-1.6c-0.1,0-0.1,0-0.1-0.1c-0.3,0.2-0.5,0.3-0.8,0.4H262.9z
		 M262.8,43v1.6c0,0.1-0.1,0.2-0.2,0.2c-0.1,0-0.2-0.1-0.2-0.2v-0.1h-2.4v0.1c0,0.1-0.1,0.2-0.2,0.2c-0.1,0-0.2-0.1-0.2-0.2V43
		c0-0.2,0.1-0.3,0.3-0.3h2.8C262.7,42.8,262.8,42.9,262.8,43z M259.6,42.2h1.3v-0.9h-1c0,0,0,0,0.1,0c0.2,0.1,0.4,0.4,0.5,0.5
		c0.1,0.1,0.1,0.2,0,0.3c-0.1,0.1-0.2,0.1-0.3-0.1c-0.1-0.2-0.3-0.4-0.4-0.6c0-0.1,0-0.1,0-0.2c0,0,0,0,0.1,0h-0.3
		c0,0-0.1,0-0.1,0.1L259.6,42.2C259.5,42.1,259.5,42.2,259.6,42.2z M259.9,43.2v0.4h2.4v-0.4c0,0,0-0.1-0.1-0.1L259.9,43.2
		C259.9,43.1,259.9,43.1,259.9,43.2z M262.3,44.2v-0.4h-2.4v0.4H262.3z M260.5,40.3h1.4c-0.2-0.2-0.5-0.4-0.7-0.6
		C261,39.9,260.8,40.1,260.5,40.3z M261.6,42c0.1-0.2,0.3-0.4,0.4-0.6c0-0.1,0.1-0.1,0.1-0.1h-0.8v0.9h0.3c0,0,0,0,0,0
		C261.6,42.1,261.6,42,261.6,42z M262.7,41.3C262.7,41.3,262.7,41.2,262.7,41.3l-0.5-0.1c0,0,0,0,0.1,0c0.1,0.1,0.1,0.2,0.1,0.3
		c-0.2,0.2-0.4,0.4-0.5,0.6l0,0h0.9c0,0,0.1,0,0.1-0.1V41.3z"/>
</g>
<rect x="234.8" y="35.5" class="st2" width="28.9" height="3.7"/>
<g class="st1">
	<path d="M235.6,37.8c-0.1,0.2-0.3,0.4-0.4,0.5c-0.1,0-0.1,0-0.1,0c0,0,0-0.1,0-0.1c0.1-0.1,0.2-0.3,0.3-0.5c0-0.1,0.1-0.1,0.2-0.1
		C235.6,37.6,235.6,37.7,235.6,37.8z M235.1,37.4v-1.5c0-0.1,0.1-0.2,0.2-0.2h0.7c0.1,0,0.2,0.1,0.2,0.2v1.5c0,0.1-0.1,0.2-0.2,0.2
		h-0.7C235.2,37.5,235.1,37.5,235.1,37.4z M235.5,36.2h0.3v-0.3c0,0,0,0,0,0h-0.3c0,0,0,0,0,0V36.2z M235.5,36.8h0.3v-0.3h-0.3V36.8
		z M235.5,37.3C235.5,37.3,235.5,37.3,235.5,37.3l0.3,0c0,0,0,0,0,0V37h-0.3V37.3z M236.2,38.1c0.1,0.1,0,0.2-0.1,0.3
		c-0.1,0-0.2,0-0.2-0.1c-0.1-0.2-0.1-0.3-0.2-0.5c0-0.1,0-0.1,0-0.1c0,0,0.1,0,0.1,0C236,37.8,236.1,37.9,236.2,38.1z M237.7,36.4
		c0,0.1,0,0.1-0.1,0.1h-0.2V38c0,0.4-0.3,0.5-0.8,0.3c-0.1,0-0.1-0.1-0.1-0.1c0-0.1,0-0.1,0.1-0.1c0.3,0,0.4,0,0.4-0.2v-1
		c-0.2,0.3-0.4,0.6-0.7,0.8c-0.1,0-0.1,0-0.1,0c0,0,0-0.1,0-0.1c0.3-0.3,0.5-0.7,0.7-1.2h-0.4c-0.1,0-0.1,0-0.1-0.1
		c0-0.1,0-0.1,0.1-0.1h0.6v-0.5c0-0.1,0.1-0.2,0.2-0.2c0.1,0,0.2,0.1,0.2,0.2v0.5h0.2C237.6,36.2,237.7,36.3,237.7,36.4z"/>
	<path d="M245.9,35.9v2.4c0,0.1-0.1,0.2-0.2,0.2c-0.1,0-0.2,0-0.2-0.2h-1.7c0,0.1-0.1,0.2-0.2,0.2c-0.1,0-0.2,0-0.2-0.2v-2.4
		c0-0.1,0.1-0.2,0.2-0.2h2.1C245.8,35.7,245.9,35.8,245.9,35.9z M243.8,35.9V38h1.7v-2.1c0,0,0,0,0,0h-0.7c0,0,0,0,0,0.1V36h0.5
		c0.1,0,0.1,0,0.1,0.1s0,0.1-0.1,0.1h-0.5v0.1h0.4c0.1,0,0.2,0.1,0.2,0.2v0.3c0,0.1-0.1,0.2-0.2,0.2c0.1,0,0.1,0.1,0.2,0.1
		c0.1,0.1,0.1,0.1,0,0.2c-0.1,0.1-0.1,0-0.2,0c0,0,0-0.1-0.1-0.1c0,0-0.1,0-0.1,0c0.1,0,0.1,0.1,0.1,0.1v0.1h0.2
		c0.1,0,0.1,0,0.1,0.1c0,0.1,0,0.1-0.1,0.1h-0.2v0.2c0,0.2-0.2,0.3-0.6,0.2c-0.1,0-0.1-0.1-0.1-0.1c0,0,0-0.1,0.1-0.1
		c0.1,0,0.2,0,0.2-0.1v-0.2h-0.7c0.1,0,0.2,0.1,0.3,0.1c0.1,0.1,0.1,0.1,0,0.2c-0.1,0.1-0.1,0.1-0.2,0c-0.1-0.1-0.1-0.1-0.2-0.2
		c0,0,0-0.1,0-0.1c0,0,0,0,0,0H244c-0.1,0-0.1,0-0.1-0.1c0-0.1,0-0.1,0.1-0.1h0.9v-0.1c0,0,0-0.1,0-0.1c-0.3,0-0.6,0.1-0.9,0.1
		c-0.1,0-0.1,0-0.1-0.1s0-0.1,0.1-0.1c0.2,0,0.3,0,0.5,0v-0.1h-0.4c-0.1,0-0.2-0.1-0.2-0.2v-0.3c0-0.1,0.1-0.2,0.2-0.2h0.4v-0.1H244
		c-0.1,0-0.1,0-0.1-0.1c0-0.1,0-0.1,0.1-0.1h0.5v-0.1c0,0,0,0,0-0.1L243.8,35.9C243.9,35.9,243.8,35.9,243.8,35.9z M244.3,36.4
		C244.3,36.4,244.3,36.5,244.3,36.4L244.3,36.4l0.2,0.1v-0.1H244.3z M244.3,36.7L244.3,36.7c0,0.1,0,0.1,0,0.1h0.2v-0.1H244.3z
		 M245.1,36.5C245.1,36.5,245.1,36.4,245.1,36.5l-0.3,0v0.1L245.1,36.5L245.1,36.5z M245.1,36.8C245.1,36.8,245.1,36.8,245.1,36.8
		l0-0.1h-0.3v0.1H245.1z M244.9,37l0.2,0c0,0,0,0,0,0c0,0,0-0.1,0-0.1h-0.2V37z"/>
	<path d="M252.4,36.8c-0.1,0.1-0.2,0.1-0.3,0c-0.1-0.1-0.2-0.3-0.3-0.4c0,0,0-0.1,0-0.1c0,0,0.1,0,0.1,0c0.1,0.1,0.3,0.2,0.4,0.3
		C252.4,36.6,252.5,36.7,252.4,36.8z M252.4,37.1c-0.1,0.3-0.1,0.7-0.2,1c0,0.2-0.2,0.2-0.3,0.2c-0.1-0.1-0.2-0.2-0.1-0.3
		c0.1-0.2,0.3-0.6,0.4-0.9c0-0.1,0.1-0.1,0.1-0.1C252.4,37,252.4,37.1,252.4,37.1z M251.9,35.7c0,0,0-0.1,0-0.1c0,0,0.1-0.1,0.1,0
		c0.1,0.1,0.3,0.2,0.4,0.3c0.1,0.1,0.1,0.2,0,0.3c-0.1,0.1-0.2,0.1-0.3,0C252.1,36,252,35.8,251.9,35.7z M254.3,38.3
		c-0.1,0.1-0.2,0-0.3-0.1c0-0.1,0-0.1-0.1-0.2c-0.4,0.1-0.8,0.2-1.3,0.3c-0.1,0-0.2,0-0.2-0.2c0-0.1,0.1-0.2,0.2-0.2
		c0.1,0,0.1,0,0.2,0c0.1-0.2,0.2-0.5,0.3-0.8h-0.5c-0.1,0-0.1,0-0.1-0.1c0-0.1,0-0.1,0.1-0.1h0.6v-0.5h-0.5c-0.1,0-0.1,0-0.1-0.1
		c0-0.1,0-0.1,0.1-0.1h0.5v-0.4c0-0.1,0.1-0.2,0.2-0.2c0.1,0,0.2,0.1,0.2,0.2v0.4h0.5c0.1,0,0.1,0,0.1,0.1c0,0.1,0,0.1-0.1,0.1h-0.5
		v0.5h0.7c0.1,0,0.1,0,0.1,0.1s0,0.1-0.1,0.1h-0.8c-0.1,0.2-0.3,0.5-0.4,0.7c0.3,0,0.5,0,0.8-0.1c0-0.1-0.1-0.2-0.1-0.3
		c0-0.1,0-0.1,0-0.1c0,0,0.1,0,0.1,0c0.2,0.2,0.3,0.4,0.5,0.7C254.5,38.1,254.4,38.3,254.3,38.3z"/>
	<path d="M260.2,38.2c0.8-0.5,1.1-1.2,1.1-2.2v-0.2c0-0.1,0.1-0.2,0.2-0.2c0.1,0,0.2,0.1,0.2,0.2c0,0.1,0,0.3,0,0.4
		c0.1,0.7,0.5,1.3,1,1.8c0.1,0.1,0.1,0.2,0.1,0.3s-0.2,0.1-0.3,0c-0.5-0.4-0.8-1.1-0.9-1.7c-0.1,0.8-0.6,1.5-1.3,1.8
		c-0.1,0-0.1,0-0.1,0C260.1,38.3,260.2,38.2,260.2,38.2z"/>
</g>
<g class="st1">
	<path d="M245.1,28.9c-0.5-0.9-1.4-2.5-2.1-3.7l0,0c0,0.2,0,0.4,0,0.6v3.1c0,0.2-0.1,0.2-0.2,0.2c-0.1,0-0.2-0.1-0.2-0.2v-4
		c0-0.2,0.1-0.3,0.3-0.3c0.2,0,0.3,0.1,0.4,0.3c0.6,1,1.4,2.5,2.1,3.6l0,0c0-0.1,0-0.4,0-0.6v-3.1c0-0.2,0.1-0.2,0.2-0.2
		c0.2,0,0.2,0.1,0.2,0.2v4c0,0.2-0.1,0.3-0.4,0.3C245.3,29.2,245.2,29.1,245.1,28.9z"/>
	<path d="M250.4,29.1c-0.2,0.1-0.3,0-0.3-0.1c-0.1-0.4-0.3-0.9-0.5-1.4h-1.8l-0.5,1.4c0,0.1-0.1,0.2-0.3,0.1s-0.2-0.1-0.1-0.3l1.5-4
		c0.1-0.2,0.2-0.3,0.4-0.3c0.2,0,0.4,0.1,0.4,0.3c0.5,1.3,1,2.7,1.5,4C250.6,29,250.6,29.1,250.4,29.1z M249.5,27.3
		c-0.2-0.7-0.5-1.4-0.8-2.1h0l-0.8,2.1H249.5z"/>
	<path d="M251.6,28.9v-4.1c0-0.2,0.1-0.3,0.3-0.3c0.2,0,0.3,0.1,0.3,0.3v4.1c0,0.2-0.1,0.3-0.3,0.3
		C251.7,29.2,251.6,29.1,251.6,28.9z"/>
	<path d="M254,25.1v1.5h1.7c0.1,0,0.2,0.1,0.2,0.2s-0.1,0.2-0.2,0.2H254v1.9c0,0.2-0.1,0.3-0.3,0.3c-0.2,0-0.3-0.1-0.3-0.3V25
		c0-0.2,0.1-0.3,0.3-0.3h2.1c0.1,0,0.2,0.1,0.2,0.2S256,25,255.9,25L254,25.1C254,25,254,25.1,254,25.1z"/>
</g>
<g class="st1">
	<path d="M242.6,31.2v-1h0.3l0.2,0.3c0.1,0.1,0.1,0.2,0.2,0.4h0c0-0.1,0-0.3,0-0.4v-0.2h0.2v1h-0.3l-0.2-0.3
		c-0.1-0.1-0.1-0.2-0.2-0.4h0c0,0.1,0,0.3,0,0.5v0.2H242.6z"/>
	<path d="M244,31l-0.1,0.2h-0.3l0.3-1h0.4l0.3,1h-0.3l-0.1-0.2H244z M244.3,30.8l0-0.2c0-0.1,0-0.1,0-0.2h0c0,0.1,0,0.1,0,0.2l0,0.2
		H244.3z"/>
	<path d="M245,30.4h-0.3v-0.2h0.8v0.2h-0.3v0.8H245V30.4z"/>
	<path d="M246.1,30.2v1h-0.3v-1H246.1z"/>
	<path d="M247.3,30.7c0,0.3-0.2,0.5-0.5,0.5c-0.3,0-0.5-0.2-0.5-0.5c0-0.3,0.2-0.5,0.5-0.5C247.2,30.2,247.3,30.4,247.3,30.7z
		 M246.6,30.7c0,0.2,0.1,0.3,0.2,0.3c0.1,0,0.2-0.1,0.2-0.3c0-0.2-0.1-0.3-0.2-0.3C246.7,30.4,246.6,30.5,246.6,30.7z"/>
	<path d="M247.6,31.2v-1h0.3l0.2,0.3c0.1,0.1,0.1,0.2,0.2,0.4h0c0-0.1,0-0.3,0-0.4v-0.2h0.2v1h-0.3l-0.2-0.3
		c-0.1-0.1-0.1-0.2-0.2-0.4h0c0,0.1,0,0.3,0,0.5v0.2H247.6z"/>
	<path d="M249.1,31l-0.1,0.2h-0.3l0.3-1h0.4l0.3,1h-0.3l-0.1-0.2H249.1z M249.3,30.8l0-0.2c0-0.1,0-0.1,0-0.2h0c0,0.1,0,0.1,0,0.2
		l0,0.2H249.3z"/>
	<path d="M250,30.2h0.3V31h0.4v0.2H250V30.2z"/>
	<path d="M251.6,31l-0.1,0.2h-0.3l0.3-1h0.4l0.3,1h-0.3l-0.1-0.2H251.6z M251.8,30.8l0-0.2c0-0.1,0-0.1,0-0.2h0c0,0.1,0,0.1,0,0.2
		l0,0.2H251.8z"/>
	<path d="M252.5,31.2v-1h0.3l0.2,0.3c0.1,0.1,0.1,0.2,0.2,0.4h0c0-0.1,0-0.3,0-0.4v-0.2h0.2v1H253l-0.2-0.3
		c-0.1-0.1-0.1-0.2-0.2-0.4h0c0,0.1,0,0.3,0,0.5v0.2H252.5z"/>
	<path d="M253.9,30.2v1h-0.3v-1H253.9z"/>
	<path d="M255.1,30.9c0-0.1,0-0.2,0-0.4h0c0,0.1-0.1,0.3-0.1,0.4l-0.1,0.4h-0.2l-0.1-0.4c0-0.1-0.1-0.3-0.1-0.4h0c0,0.1,0,0.3,0,0.4
		l0,0.4h-0.2l0.1-1h0.4l0.1,0.3c0,0.1,0.1,0.2,0.1,0.4h0c0-0.1,0.1-0.3,0.1-0.4l0.1-0.3h0.4l0.1,1h-0.3L255.1,30.9z"/>
	<path d="M255.9,31l-0.1,0.2h-0.3l0.3-1h0.4l0.3,1h-0.3l-0.1-0.2H255.9z M256.2,30.8l0-0.2c0-0.1,0-0.1,0-0.2h0c0,0.1,0,0.1,0,0.2
		l0,0.2H256.2z"/>
	<path d="M256.8,30.2h0.3V31h0.4v0.2h-0.7V30.2z"/>
	<path d="M242.9,31.8v1h-0.3v-1H242.9z"/>
	<path d="M243.2,32.8v-1h0.3l0.2,0.3c0.1,0.1,0.1,0.2,0.2,0.4h0c0-0.1,0-0.3,0-0.4v-0.2h0.2v1h-0.3l-0.2-0.3
		c-0.1-0.1-0.1-0.2-0.2-0.4h0c0,0.1,0,0.3,0,0.5v0.2H243.2z"/>
	<path d="M244.4,31.8c0.1,0,0.2,0,0.3,0c0.2,0,0.3,0,0.4,0.1c0.1,0.1,0.2,0.2,0.2,0.4c0,0.2-0.1,0.3-0.2,0.4
		c-0.1,0.1-0.3,0.1-0.5,0.1c-0.1,0-0.2,0-0.3,0V31.8z M244.6,32.6C244.7,32.6,244.7,32.6,244.6,32.6c0.2,0,0.4-0.1,0.4-0.3
		c0-0.2-0.1-0.3-0.3-0.3c0,0-0.1,0-0.1,0V32.6z"/>
	<path d="M245.8,31.8v0.6c0,0.2,0.1,0.2,0.2,0.2c0.1,0,0.2-0.1,0.2-0.2v-0.6h0.3v0.6c0,0.3-0.2,0.5-0.4,0.5c-0.3,0-0.4-0.2-0.4-0.5
		v-0.5H245.8z"/>
	<path d="M246.8,32.6c0.1,0,0.2,0.1,0.3,0.1c0.1,0,0.1,0,0.1-0.1c0,0,0-0.1-0.2-0.1c-0.2-0.1-0.3-0.2-0.3-0.3c0-0.2,0.2-0.3,0.4-0.3
		c0.1,0,0.2,0,0.3,0.1l-0.1,0.2c0,0-0.1,0-0.2,0c-0.1,0-0.1,0-0.1,0.1c0,0.1,0.1,0.1,0.2,0.1c0.2,0.1,0.3,0.2,0.3,0.3
		c0,0.2-0.1,0.3-0.4,0.3c-0.1,0-0.2,0-0.3-0.1L246.8,32.6z"/>
	<path d="M247.9,32h-0.3v-0.2h0.8V32h-0.3v0.8h-0.3V32z"/>
	<path d="M248.7,31.8c0.1,0,0.2,0,0.3,0c0.2,0,0.3,0,0.3,0.1c0.1,0,0.1,0.1,0.1,0.2c0,0.1-0.1,0.2-0.2,0.2v0c0.1,0,0.1,0.1,0.1,0.2
		c0,0.1,0.1,0.2,0.1,0.3h-0.3c0,0,0-0.1-0.1-0.2c0-0.1-0.1-0.1-0.1-0.1h0v0.4h-0.3V31.8z M249,32.3L249,32.3c0.2,0,0.2,0,0.2-0.1
		c0-0.1,0-0.1-0.1-0.1c-0.1,0-0.1,0-0.1,0V32.3z"/>
	<path d="M250,32.8v-0.4l-0.3-0.6h0.3l0.1,0.2c0,0.1,0,0.1,0.1,0.2h0c0-0.1,0-0.1,0.1-0.2l0.1-0.2h0.3l-0.3,0.6v0.4H250z"/>
	<path d="M251.3,31.8h0.6V32h-0.4v0.2h0.4v0.2h-0.4v0.4h-0.3V31.8z"/>
	<path d="M253.2,32.3c0,0.3-0.2,0.5-0.5,0.5c-0.3,0-0.5-0.2-0.5-0.5c0-0.3,0.2-0.5,0.5-0.5C253,31.8,253.2,32,253.2,32.3z
		 M252.5,32.3c0,0.2,0.1,0.3,0.2,0.3c0.1,0,0.2-0.1,0.2-0.3c0-0.2-0.1-0.3-0.2-0.3C252.5,32,252.5,32.1,252.5,32.3z"/>
	<path d="M253.7,31.8v0.6c0,0.2,0.1,0.2,0.2,0.2c0.1,0,0.2-0.1,0.2-0.2v-0.6h0.3v0.6c0,0.3-0.2,0.5-0.4,0.5c-0.3,0-0.4-0.2-0.4-0.5
		v-0.5H253.7z"/>
	<path d="M254.6,32.8v-1h0.3l0.2,0.3c0.1,0.1,0.1,0.2,0.2,0.4h0c0-0.1,0-0.3,0-0.4v-0.2h0.2v1h-0.3l-0.2-0.3
		c-0.1-0.1-0.1-0.2-0.2-0.4h0c0,0.1,0,0.3,0,0.5v0.2H254.6z"/>
	<path d="M255.8,31.8c0.1,0,0.2,0,0.3,0c0.2,0,0.3,0,0.4,0.1c0.1,0.1,0.2,0.2,0.2,0.4c0,0.2-0.1,0.3-0.2,0.4
		c-0.1,0.1-0.3,0.1-0.5,0.1c-0.1,0-0.2,0-0.3,0V31.8z M256.1,32.6C256.1,32.6,256.1,32.6,256.1,32.6c0.2,0,0.4-0.1,0.4-0.3
		c0-0.2-0.1-0.3-0.3-0.3c0,0-0.1,0-0.1,0V32.6z"/>
	<path d="M257.3,32.6l-0.1,0.2h-0.3l0.3-1h0.4l0.3,1h-0.3l-0.1-0.2H257.3z M257.5,32.4l0-0.2c0-0.1,0-0.1,0-0.2h0c0,0.1,0,0.1,0,0.2
		l0,0.2H257.5z"/>
	<path d="M258.2,32H258v-0.2h0.8V32h-0.3v0.8h-0.3V32z"/>
	<path d="M259.3,31.8v1H259v-1H259.3z"/>
	<path d="M260.5,32.3c0,0.3-0.2,0.5-0.5,0.5c-0.3,0-0.5-0.2-0.5-0.5c0-0.3,0.2-0.5,0.5-0.5C260.4,31.8,260.5,32,260.5,32.3z
		 M259.8,32.3c0,0.2,0.1,0.3,0.2,0.3c0.1,0,0.2-0.1,0.2-0.3c0-0.2-0.1-0.3-0.2-0.3C259.9,32,259.8,32.1,259.8,32.3z"/>
	<path d="M260.8,32.8v-1h0.3l0.2,0.3c0.1,0.1,0.1,0.2,0.2,0.4h0c0-0.1,0-0.3,0-0.4v-0.2h0.2v1h-0.3l-0.2-0.3
		c-0.1-0.1-0.1-0.2-0.2-0.4h0c0,0.1,0,0.3,0,0.5v0.2H260.8z"/>
</g>
<g id="g330_00000004509345073041246800000003127421799992842640_">
	<path id="path149_00000073721562238845768750000001246485256522602662_" class="st3" d="M50.7,25c0,12.7-10.3,23-23,23
		s-23-10.3-23-23S15,2,27.7,2S50.7,12.3,50.7,25"/>
	<path id="path151_00000176741483199438442920000014800682900968780178_" class="st4" d="M23.9,32.9c0,0-2.5-8.2-9.2-9.5
		c-6.6-1.3-8.7,2.6-9,6.4c0,0-0.5-6.4,6.1-9.3s12,3.3,12,3.9c0,0,2.1-6.2,8.7-9.3s14.4-0.5,16.9,2.3c0,0-7.2-5.1-14.9-1.3
		C26.7,19.8,24.6,27.7,23.9,32.9"/>
	<path id="path153_00000114796198620126243220000003106400884836690839_" class="st5" d="M33.3,44.5H23.2c0,0-1.5-9.5,4-17.2
		s14.1-7.2,17.4-5c3.3,2.2,4.6,6.5,2.4,10.1c-2.2,3.6-8.8,5.7-12.9-0.7c0,0,7,2.2,8.6-2.1c1.5-4.3-4-6.2-7.2-5c-3.3,1.2-5.3,4-6,8.1
		C28.7,36.9,30.4,41.7,33.3,44.5"/>
	<path id="path155_00000117667283556642114670000011403867130509146244_" class="st6" d="M23.6,16c1,1.8,1.2,3.8,0.7,5.7
		c-1.8-0.5-3.5-1.7-4.5-3.5s-1.2-3.8-0.7-5.7C20.9,13,22.6,14.2,23.6,16"/>
	<path id="path157_00000096738871882046081120000000472808034318953656_" class="st6" d="M28.1,12.5c-0.3,2-1.3,3.8-2.9,4.9
		C24.1,16,23.5,14,23.8,12s1.3-3.8,2.9-4.9C27.8,8.5,28.4,10.5,28.1,12.5"/>
	<path id="path159_00000055672337431782829940000001447832977527335836_" class="st6" d="M32.1,10.6c-0.5,1.4-1.4,2.5-2.6,3.1
		c-0.6-1.2-0.7-2.7-0.3-4c0.5-1.4,1.4-2.5,2.6-3.1C32.4,7.8,32.6,9.2,32.1,10.6"/>
</g>
<g>
	<g>
		<path d="M71.4,14.5c-0.6,0.5-1.3,0.9-2,1.4H75v6.9h-2.3v-1h-4.6v1h-2.3v-5c-1.1,0.4-2.1,0.8-3.1,1l-0.3-1.1c2.3-0.9,4.3-1.9,6-3.2
			h-5.1v-1.2h4v-1.6h-3.1v-1.2h3.1V9.2H63c0,4.9-0.4,10.8-2.9,13.7l-0.9-0.6c1.3-3,1.4-6.9,1.4-13.1V5h15.1v4.2h-2.2l1.8,1.2
			c-0.7,1-1.6,2-2.6,2.9h3.7v1.2C76.4,14.5,71.4,14.5,71.4,14.5z M63.2,7.9h10.4V6.3H63.2V7.9z M72.8,17h-4.6v1.3h4.6V17z
			 M72.8,19.3h-4.6v1.4h4.6V19.3z M69.7,9.2v1.4h2.5V11c0.5-0.6,0.9-1.2,1.3-1.9L69.7,9.2L69.7,9.2z M70,13.3c0.6-0.5,1.1-1,1.6-1.6
			h-1.9v1.6H70z"/>
		<path d="M88.6,15.5v2.2h5.7V19h-5.7v3.8h-2.5V19h-5.7v-1.2h5.7v-2.2h-7v-1.2h5.5c-0.6-0.9-1.2-1.9-1.8-2.6l0.3-0.4h-1.5v-0.8h-2.2
			v-4h8.1c-1-0.6-2.2-1.3-3.1-1.7L84.6,4c1.2,0.1,3.3,0.5,4.7,1.1l-0.7,1.5h6.8v4h-2.2v0.8H91l1.3,0.6c-0.6,0.8-1.4,1.7-2.2,2.4h5.6
			v1.2h-7.1V15.5z M81.6,7.8v2.3h5.2c-0.7-0.6-1.5-1.3-2.2-1.8l0.2-0.5H81.6z M86.6,13.5l-1,0.9h3c0.5-1,0.9-2,1.2-3h-5.9
			C84.9,11.9,85.9,12.7,86.6,13.5z M93.1,7.8h-6.9c0.9,0.3,1.8,0.8,2.7,1.3l-0.7,1h4.9V7.8z"/>
		<path d="M104.5,14.9c-1.8,1.6-4,3-5.8,3.9l-1-2.5c0.7-0.2,1.5-0.4,2.3-0.7V10h-2V8.8h2V4.4h2.3v4.4h1.9V10h-1.9v4.8
			c0.5-0.2,1.1-0.5,1.6-0.7L104.5,14.9z M108.1,13.3c-0.2,0.4-0.5,0.8-0.8,1.2h7.4c0,2.2-0.1,4.5-0.4,6.2c-0.3,2.1-2,3-5,0.9l0.3-1
			c2.1,0.6,2.4,0.4,2.6-0.4s0.3-2.6,0.4-4.5H112c-1.4,3.8-4.5,6.1-7.4,7l-0.4-0.9c2.3-1.2,4.6-3,5.8-6.1h-0.7
			c-1.5,2.8-4,4.4-6.3,5.2l-0.4-0.9c1.9-1,3.6-2.3,4.6-4.3h-0.7c-1.1,1.2-2.4,2.1-3.7,2.7l-0.5-0.9c1.7-1.2,2.9-2.6,3.7-4.3h-2.4V12
			h11.8v1.2L108.1,13.3L108.1,13.3z M113.6,11.1h-8.8V5h8.8V11.1z M107,6.2v1.2h4.4V6.2H107z M111.4,9.9V8.6H107v1.3
			C107,9.9,111.4,9.9,111.4,9.9z"/>
		<path d="M125.8,14.2h-5.4v7h-2.7V6.4h2.7v6.1h5.4V6.4h2.7v14.7h-2.7V14.2z"/>
		<path d="M138.6,16.8H134l-1.2,4.3h-2.4L135,6.5h3l4.8,14.7h-3L138.6,16.8z M136.3,8.7h-0.1c-0.2,0.7-0.5,1.9-0.7,2.7l-1.1,3.8h3.7
			l-1.1-3.8C136.8,10.5,136.4,9.3,136.3,8.7z"/>
		<path d="M150.1,7.9c-2.7,0-3.6,2.9-3.6,5.9c0,3.1,0.9,5.9,4,5.9c1.4,0,2.5-0.6,3.5-1.5v2.3c-0.8,0.6-2.1,0.9-3.8,0.9
			c-4.3,0-6.4-3.4-6.4-7.7c0-4.6,2.4-7.6,6.2-7.6c1.6,0,3.1,0.5,4,1.1v2.4C153,8.6,151.5,7.9,150.1,7.9z"/>
		<path d="M162.3,7.9c-2.7,0-3.6,2.9-3.6,5.9c0,3.1,0.9,5.9,4,5.9c1.4,0,2.5-0.6,3.5-1.5v2.3c-0.8,0.6-2.1,0.9-3.8,0.9
			c-4.3,0-6.4-3.4-6.4-7.7c0-4.6,2.4-7.6,6.2-7.6c1.6,0,3.1,0.5,4,1.1v2.4C165.2,8.6,163.7,7.9,162.3,7.9z"/>
		<path d="M172.3,15.5h-1.1v5.8h-2.7V6.5c1.4-0.1,2.5-0.1,3.8-0.1c3.7,0.1,6,1.2,6,4.3C178.2,14.3,175.8,15.5,172.3,15.5z
			 M172.4,8.2c-0.4,0-0.8,0-1.3,0.1v5.5h1.1c2.1,0,3.3-0.7,3.3-2.8S174.2,8.2,172.4,8.2z"/>
		<path d="M65.8,41.1v2.5c0,2.2-2.1,2.8-5,1.2l0.2-0.9c2.1,0.3,2.5,0.1,2.5-0.9v-1.2c-1.3,0.4-2.5,0.7-3.4,0.8l-0.5-2.2
			c1.1-0.1,2.5-0.3,4-0.5v-1.8l1.3,0.2c0.4-0.6,0.8-1.3,1.1-1.8h-1.6c-1.4,1.4-3,2.4-4.5,3.2L59.4,39c0.9-0.7,1.9-1.5,2.9-2.4h-1.8
			v-1.2h2.9c0.4-0.4,0.8-0.9,1.2-1.4h-4.8v-1.2h3.1v-1.9h-2.4v-1.2h2.4v-2.3H65v2.3h1.8c0.3-0.6,0.5-1.3,0.7-2l2.1,0.9
			c-0.6,1.5-1.3,3-2.2,4.2h1.7V34h-2.5c-0.4,0.5-0.8,1-1.2,1.4h0.7l0.5-0.3l1.7,1.2c-0.6,0.8-1.6,1.8-2.6,2.5v0.7
			c1.1-0.2,2.1-0.5,3.1-0.7l0.3,0.9C68.3,40.2,67.1,40.7,65.8,41.1z M65,32.8h0.3c0.4-0.6,0.7-1.2,1-1.9H65V32.8z M77.1,43.4
			l-1.7,2.4c-1.3-0.9-2.3-2.2-3.2-3.7c-1.3,1.5-3,2.7-5.4,3.6l-0.4-0.9c2.3-1.3,3.9-2.8,4.9-4.6c-0.5-1.4-0.8-3-1-4.7
			c-0.4,0.8-0.9,1.6-1.4,2.2l-0.7-0.5c1.2-2.4,1.9-6.3,2.2-9.8l2.5,0.4c-0.2,1.2-0.5,2.4-0.9,3.7h4.4v1.2h-0.9
			c-0.1,2.8-0.7,5.4-2,7.6C74.6,41.5,75.7,42.5,77.1,43.4z M72.4,38c0.5-1.6,0.8-3.4,0.9-5.4h-1.5c-0.1,0.3-0.2,0.7-0.4,1
			C71.6,35.3,71.9,36.8,72.4,38z"/>
		<path d="M95.8,30.7h-5.3c1.8,0.7,3.5,1.6,5.1,3L94,35.6c-0.5-0.6-1.1-1.2-1.7-1.9c-3.6,0.8-9.1,1.3-11.8,1.4L80,32.7
			c1.1,0.1,2.3,0.1,3.5,0.1c0.4-0.7,0.8-1.4,1.1-2.1H79v-1.3h8.4c-1-0.6-2-1.1-2.9-1.5l0.3-1c1.3,0.1,3.4,0.7,4.7,1.2l-0.7,1.3h6.9
			L95.8,30.7L95.8,30.7z M81.6,35.6h11.7v8c0,2.2-2,2.9-5.4,1.2l0.2-1c2.6,0.3,2.8,0.2,2.8-0.9v-1H84v3.8h-2.4
			C81.6,45.7,81.6,35.6,81.6,35.6z M84.1,36.8v1.4H91v-1.4H84.1z M90.9,40.7v-1.4H84v1.4H90.9z M89.8,31.5l0.5-0.8h-2.7
			c-0.7,0.8-1.5,1.5-2.3,2.2c2,0,4.1,0,5.9-0.1C90.7,32.3,90.3,31.9,89.8,31.5z"/>
		<path d="M105.4,32h-7.3v-1.3h3.2c-0.7-1.2-1.3-2.3-1.9-3L100,27c1.1,0.6,2.3,1.6,3.2,2.7l-1.3,1.1h3.3V32H105.4z M104.8,43.9h-4
			v1.5h-2.1v-6.8h6L104.8,43.9L104.8,43.9z M104.7,34.7h-5.9v-1.2h5.9V34.7z M98.8,36h5.9v1.2h-5.9V36z M102.7,39.8h-1.9v3h1.9V39.8
			z M105.9,27.4h2.1v7.7c0,5.4-0.5,8.4-3.1,10.7l-0.7-0.6c1.6-2.3,1.7-5.2,1.7-9.5V27.4z M109.1,28.2h2.1V44h-2.1V28.2z M114.4,27.3
			v18.3h-2.1V27.3H114.4z"/>
		<path d="M119.3,39.7c0.1,2.2-0.1,4.1-0.4,5.6l-2.1-0.8c0.7-1.3,1.2-2.9,1.6-4.9L119.3,39.7z M134.7,42.6l-1.3,2.1
			c-1.6-1.1-2.8-2.7-3.7-4.7v5.6h-2.3v-5.2c-0.8,1.3-2.2,2.9-4.5,4.2l-0.5-0.9c2.1-1.6,3.4-3.6,4.3-5.6H124c0.1,0.1,0.1,0.2,0.1,0.3
			l-1.7,0.7c0.7,0.8,1.3,1.9,1.7,2.8l-1.7,0.8c-0.3-1.3-0.7-2.5-1.2-3.7l0.7-0.4c0.1,0.1,0.2,0.3,0.4,0.5c-0.1-0.4-0.2-0.9-0.3-1.4
			c-1.4,0.7-3.2,1.3-4.5,1.5l-0.5-2.3c0.4,0,0.8,0,1.2,0c0.7-0.9,1.3-1.9,1.9-3.1c-0.9,0.3-1.8,0.6-2.6,0.7l-0.4-2.2
			c0.3,0,0.6,0.1,0.9,0.1c0.6-1.6,1.1-3.5,1.5-5.5l2.3,0.7c-0.7,1.7-1.7,3.6-2.6,4.9c0.5,0,1,0,1.5,0c0.3-0.8,0.7-1.6,0.9-2.4
			l2.1,0.9c-1,2.2-2.6,4.4-4.1,6c0.7,0,1.4-0.1,2-0.2l-0.4-1.3l0.8-0.4c0.6,0.7,1.2,1.7,1.7,2.7v-6h3.5v-1.3h-4.1v-1.2h4.1v-2.1h2.3
			v2.1h4.2v1.2h-4.2v1.3h3.6v6.4h-3.3C131.1,40.2,132.7,41.6,134.7,42.6z M120.8,39.4c0.6,1.5,1.1,3.6,1.3,5l-2,0.3
			c0-1.4-0.1-3.6-0.2-5.2L120.8,39.4z M125.8,33.1v0.6l0.6-0.2c0.4,0.8,0.9,1.7,1.2,2.7v-3.1H125.8z M125.8,37h1.8v-0.7l-1.2,0.5
			c-0.2-0.9-0.4-1.7-0.6-2.4C125.8,34.4,125.8,37,125.8,37z M131.2,33.1h-1.8v4h1.8v-2.8c-0.3,1-0.6,1.8-1,2.5l-0.7-0.3
			c0.3-1.1,0.4-1.9,0.6-3.1l1.2,0.3v-0.6H131.2z"/>
		<path d="M141.9,32.7h2.9v1.2h-2.1l1.5,0.6c-0.4,0.7-1.1,1.7-1.8,2.4h2v1.2H142v2.1h2.8v1.2H142v4.3h-2.4v-4.3h-3v-1.2h3.1v-2.1
			h-2.6V37h1.6c-0.3-0.9-0.8-2-1.1-2.7l0.5-0.4h-1.4v-1.2h2.9V31H137v-1.2h2.5v-2.4h2.4v2.4h2.5V31h-2.5V32.7z M138.4,33.9
			c0.8,0.7,1.7,1.8,2.1,2.5l-1,0.5h1.5c0.4-0.9,0.8-2.1,1-3.1L138.4,33.9L138.4,33.9z M153.7,43.5l-1.3,2.2
			c-0.8-0.6-1.6-1.3-2.4-2.2c-0.6,0.8-1.4,1.5-2.2,2.1l-0.5-0.8v1H145V28.2h7.7c0,1.6,0,3,0,4.1c-0.1,2.3-2.1,2.6-4.8,1.4l0.2-1
			c1.9,0.3,2.3,0,2.3-0.8c0.1-0.7,0.1-1.5,0-2.5h-3.1v6.1h3.1l0.5-0.5l2.1,0.6c-0.3,2.3-0.9,4.4-1.7,6.1
			C152,42.4,152.8,43,153.7,43.5z M149.1,42.2c-0.8-1.4-1.5-3.3-1.7-5.5h-0.1v8C148.1,43.9,148.7,43.1,149.1,42.2z M148.3,36.7
			c0.4,1.4,0.9,2.6,1.6,3.5c0.3-1.1,0.6-2.2,0.7-3.5H148.3z"/>
		<path d="M171.6,37.4v8.3h-2.5v-1.4h-6.5v1.4h-2.5v-6.1c-1.6,0.6-3.1,1-4.4,1.2l-0.2-1.1c5.9-1.8,10.4-5.2,12.7-9.1h-4.7
			c-0.5,0.5-1.1,1-1.7,1.5c0.9,0.6,1.8,1.3,2.5,2l-1.9,1.7c-0.6-1.1-1.2-2-1.9-2.8c-1.3,0.9-2.7,1.6-4.1,2.1l-0.4-1
			c3.2-1.9,5.5-4.6,7-7.4l2.5,1.2c-0.3,0.5-0.7,1-1,1.4h3.7l0.9-0.5l2.4,1.5c-1.6,3-4.1,5.3-6.7,6.9h6.8V37.4z M169.1,43.1v-4.5
			h-6.5v4.5H169.1z"/>
		<path d="M175,45.2l-0.4-0.9c2-1.3,3.7-3,5.1-5.1l2.2,1.4C180.5,42.3,178,44.1,175,45.2z M185,38.5v5.1c0,2.2-2.1,3.1-5.4,1.1
			l0.3-1c2.3,0.4,2.6,0.2,2.6-0.9v-4c-2.3,0.3-4.5,0.4-6,0.5l-0.5-2.4c1.1,0.1,2.3,0.1,3.4,0.1c1.4-0.8,2.9-1.7,4.2-2.8
			c-2.2,0.5-4.2,0.7-5.8,0.9l-0.5-2.3c0.8,0.1,1.6,0.1,2.4,0.1c0.7-0.8,1.4-1.7,2.1-2.6c-2,0.1-3.8,0.2-5.3,0.2l-0.2-1
			c4.5-0.4,8.8-1.1,12.3-2.4l2.1,1.9c-1.7,0.4-3.7,0.7-5.6,1c-1.1,1-2.5,2.1-3.7,3c1.3,0,2.6,0,3.9-0.1c0.7-0.7,1.4-1.5,2.1-2.3
			l2.3,1.5c-2.3,2.2-4.9,3.9-7.5,5.1c2.1-0.1,4.2-0.2,6.1-0.4c-0.4-0.6-0.7-1.1-1.1-1.6l0.7-0.6c1.3,0.9,3.1,2.5,4,3.9L190,40
			c-0.3-0.7-0.7-1.4-1.1-2.1C187.7,38,186.4,38.3,185,38.5z M192.1,42.8l-1.7,2.1c-1.1-1.3-3.4-3.5-5-4.8l0.5-0.9
			C187.9,40,190.7,41.6,192.1,42.8z"/>
		<path d="M196.5,40c0,2.2-0.2,4.2-0.5,5.7l-2.2-0.9c0.7-1.3,1.4-2.9,1.8-5L196.5,40z M195.4,37.4c0.8-1.1,1.5-2.2,2.2-3.5
			c-1.1,0.4-2.1,0.7-3,0.9l-0.4-2.2c0.4,0,0.7,0,1.1,0c0.7-1.7,1.2-3.7,1.5-5.5l2.4,0.7c-0.7,1.7-1.8,3.5-2.7,4.9
			c0.6,0,1.2,0,1.8-0.1c0.3-0.6,0.6-1.3,0.8-2l2.1,1.1c-1.4,2.3-2.9,4.2-4.3,5.5c0.8-0.1,1.6-0.2,2.4-0.3l-0.4-1.4l0.8-0.4
			c0.7,0.9,1.4,2.2,2,3.5l-1.8,0.7c-0.1-0.4-0.2-0.9-0.3-1.3c-1.6,0.7-3.6,1.4-5.1,1.6l-0.5-2.1L195.4,37.4z M199.4,44.3l-2.1,0.4
			c0-1.4-0.2-3.4-0.3-4.9l0.8-0.2C198.5,41,199.1,43,199.4,44.3z M199.4,39c0.9,1,1.7,2.3,2.3,3.4l-1.8,1c-0.4-1.3-0.8-2.7-1.3-3.9
			L199.4,39z M208.8,45.4c-2.6,0-3-0.3-3-2.5v-6.5c-0.3,0.1-0.7,0.2-1.1,0.2v0.8c0,3.7-0.7,7-5.2,8.5l-0.4-0.9c3.2-2,3.4-4,3.4-7.7
			V37c-0.5,0.1-1,0.1-1.4,0.2l-0.5-2.3c0.5,0,1.1,0,1.6,0c0.5-1.1,1-2.5,1.3-3.8h-2.9V30h4.8c-0.8-0.8-1.7-1.5-2.4-2.1l0.4-0.9
			c1.3,0.3,2.9,1.1,4.1,1.9l-0.9,1.2h4.1v1.2h-4.5c-0.8,1.3-1.7,2.7-2.6,3.7c1.4,0,2.9-0.1,4.3-0.3c-0.3-0.7-0.6-1.4-0.9-1.9
			l0.7-0.5c1.3,1.2,2.7,3.2,3.4,4.5l-2,1.2c-0.2-0.6-0.5-1.3-0.8-2.1c-0.1,0.1-0.3,0.1-0.4,0.1v6.4c0,0.8,0.1,1,0.8,1
			c0.8,0,0.9-0.2,0.9-3.5h1C211.9,44.8,211.1,45.5,208.8,45.4z"/>
	</g>
</g>
</svg>
